<?xml version="1.0" encoding="utf-8"?>
<svg version="1.1" xmlns:xlink="http://www.w3.org/1999/xlink" width="16px" height="16px" viewBox="61 267  16 16" xmlns="http://www.w3.org/2000/svg">
  <path d="M 69 267  C 73.48 267  77 270.52  77 275  C 77 279.48  73.48 283  69 283  C 64.52 283  61 279.48  61 275  C 61 270.52  64.52 267  69 267  Z " fill-rule="nonzero" fill="#ffffff" stroke="none" />
  <path d="M 69 267.5  C 73.2 267.5  76.5 270.8  76.5 275  C 76.5 279.2  73.2 282.5  69 282.5  C 64.8 282.5  61.5 279.2  61.5 275  C 61.5 270.8  64.8 267.5  69 267.5  Z " stroke-width="1" stroke="#797979" fill="none" />
  <path d="M 69 279  C 66.76 279  65 277.24  65 275  C 65 272.76  66.76 271  69 271  C 71.24 271  73 272.76  73 275  C 73 277.24  71.24 279  69 279  " fill-rule="nonzero" fill="#797979" stroke="none" />
</svg>