<?xml version="1.0" encoding="utf-8"?>
<svg version="1.1" xmlns:xlink="http://www.w3.org/1999/xlink" width="16px" height="16px" viewBox="61 318  16 16" xmlns="http://www.w3.org/2000/svg">
  <path d="M 69 318  C 73.48 318  77 321.52  77 326  C 77 330.48  73.48 334  69 334  C 64.52 334  61 330.48  61 326  C 61 321.52  64.52 318  69 318  Z " fill-rule="nonzero" fill="#f0f0f0" stroke="none" />
  <path d="M 69 318.5  C 73.2 318.5  76.5 321.8  76.5 326  C 76.5 330.2  73.2 333.5  69 333.5  C 64.8 333.5  61.5 330.2  61.5 326  C 61.5 321.8  64.8 318.5  69 318.5  Z " stroke-width="1" stroke="#797979" fill="none" />
  <path d="M 69 330  C 66.76 330  65 328.24  65 326  C 65 323.76  66.76 322  69 322  C 71.24 322  73 323.76  73 326  C 73 328.24  71.24 330  69 330  " fill-rule="nonzero" fill="#797979" stroke="none" />
</svg>