<?xml version="1.0" encoding="utf-8"?>
<svg version="1.1" xmlns:xlink="http://www.w3.org/1999/xlink" width="16px" height="16px" viewBox="61 528  16 16" xmlns="http://www.w3.org/2000/svg">
  <path d="M 69 528  C 73.48 528  77 531.52  77 536  C 77 540.48  73.48 544  69 544  C 64.52 544  61 540.48  61 536  C 61 531.52  64.52 528  69 528  Z " fill-rule="nonzero" fill="#f0f0f0" stroke="none" />
  <path d="M 69 528.5  C 73.2 528.5  76.5 531.8  76.5 536  C 76.5 540.2  73.2 543.5  69 543.5  C 64.8 543.5  61.5 540.2  61.5 536  C 61.5 531.8  64.8 528.5  69 528.5  Z " stroke-width="1" stroke="#797979" fill="none" />
  <path d="M 69 540  C 66.76 540  65 538.24  65 536  C 65 533.76  66.76 532  69 532  C 71.24 532  73 533.76  73 536  C 73 538.24  71.24 540  69 540  " fill-rule="nonzero" fill="#797979" stroke="none" />
</svg>