<?xml version="1.0" encoding="utf-8"?>
<svg version="1.1" xmlns:xlink="http://www.w3.org/1999/xlink" width="16px" height="16px" viewBox="61 579  16 16" xmlns="http://www.w3.org/2000/svg">
  <path d="M 69 579  C 73.48 579  77 582.52  77 587  C 77 591.48  73.48 595  69 595  C 64.52 595  61 591.48  61 587  C 61 582.52  64.52 579  69 579  Z " fill-rule="nonzero" fill="#ffffff" stroke="none" />
  <path d="M 69 579.5  C 73.2 579.5  76.5 582.8  76.5 587  C 76.5 591.2  73.2 594.5  69 594.5  C 64.8 594.5  61.5 591.2  61.5 587  C 61.5 582.8  64.8 579.5  69 579.5  Z " stroke-width="1" stroke="#797979" fill="none" />
  <path d="M 69 591  C 66.76 591  65 589.24  65 587  C 65 584.76  66.76 583  69 583  C 71.24 583  73 584.76  73 587  C 73 589.24  71.24 591  69 591  " fill-rule="nonzero" fill="#797979" stroke="none" />
</svg>