<?xml version="1.0" encoding="utf-8"?>
<svg version="1.1" xmlns:xlink="http://www.w3.org/1999/xlink" width="16px" height="16px" viewBox="61 630  16 16" xmlns="http://www.w3.org/2000/svg">
  <path d="M 69 630  C 73.48 630  77 633.52  77 638  C 77 642.48  73.48 646  69 646  C 64.52 646  61 642.48  61 638  C 61 633.52  64.52 630  69 630  Z " fill-rule="nonzero" fill="#f0f0f0" stroke="none" />
  <path d="M 69 630.5  C 73.2 630.5  76.5 633.8  76.5 638  C 76.5 642.2  73.2 645.5  69 645.5  C 64.8 645.5  61.5 642.2  61.5 638  C 61.5 633.8  64.8 630.5  69 630.5  Z " stroke-width="1" stroke="#797979" fill="none" />
  <path d="M 69 642  C 66.76 642  65 640.24  65 638  C 65 635.76  66.76 634  69 634  C 71.24 634  73 635.76  73 638  C 73 640.24  71.24 642  69 642  " fill-rule="nonzero" fill="#797979" stroke="none" />
</svg>