<?xml version="1.0" encoding="utf-8"?>
<svg version="1.1" xmlns:xlink="http://www.w3.org/1999/xlink" width="16px" height="16px" viewBox="61 840  16 16" xmlns="http://www.w3.org/2000/svg">
  <path d="M 69 840  C 73.48 840  77 843.52  77 848  C 77 852.48  73.48 856  69 856  C 64.52 856  61 852.48  61 848  C 61 843.52  64.52 840  69 840  Z " fill-rule="nonzero" fill="#f0f0f0" stroke="none" />
  <path d="M 69 840.5  C 73.2 840.5  76.5 843.8  76.5 848  C 76.5 852.2  73.2 855.5  69 855.5  C 64.8 855.5  61.5 852.2  61.5 848  C 61.5 843.8  64.8 840.5  69 840.5  Z " stroke-width="1" stroke="#797979" fill="none" />
  <path d="M 69 852  C 66.76 852  65 850.24  65 848  C 65 845.76  66.76 844  69 844  C 71.24 844  73 845.76  73 848  C 73 850.24  71.24 852  69 852  " fill-rule="nonzero" fill="#797979" stroke="none" />
</svg>