<?xml version="1.0" encoding="utf-8"?>
<svg version="1.1" xmlns:xlink="http://www.w3.org/1999/xlink" width="16px" height="16px" viewBox="61 893  16 16" xmlns="http://www.w3.org/2000/svg">
  <path d="M 69 893  C 73.48 893  77 896.52  77 901  C 77 905.48  73.48 909  69 909  C 64.52 909  61 905.48  61 901  C 61 896.52  64.52 893  69 893  Z " fill-rule="nonzero" fill="#ffffff" stroke="none" />
  <path d="M 69 893.5  C 73.2 893.5  76.5 896.8  76.5 901  C 76.5 905.2  73.2 908.5  69 908.5  C 64.8 908.5  61.5 905.2  61.5 901  C 61.5 896.8  64.8 893.5  69 893.5  Z " stroke-width="1" stroke="#797979" fill="none" />
  <path d="M 69 905  C 66.76 905  65 903.24  65 901  C 65 898.76  66.76 897  69 897  C 71.24 897  73 898.76  73 901  C 73 903.24  71.24 905  69 905  " fill-rule="nonzero" fill="#797979" stroke="none" />
</svg>