<?xml version="1.0" encoding="utf-8"?>
<svg version="1.1" xmlns:xlink="http://www.w3.org/1999/xlink" width="16px" height="16px" viewBox="61 943  16 16" xmlns="http://www.w3.org/2000/svg">
  <path d="M 69 943  C 73.48 943  77 946.52  77 951  C 77 955.48  73.48 959  69 959  C 64.52 959  61 955.48  61 951  C 61 946.52  64.52 943  69 943  Z " fill-rule="nonzero" fill="#f0f0f0" stroke="none" />
  <path d="M 69 943.5  C 73.2 943.5  76.5 946.8  76.5 951  C 76.5 955.2  73.2 958.5  69 958.5  C 64.8 958.5  61.5 955.2  61.5 951  C 61.5 946.8  64.8 943.5  69 943.5  Z " stroke-width="1" stroke="#797979" fill="none" />
  <path d="M 69 955  C 66.76 955  65 953.24  65 951  C 65 948.76  66.76 947  69 947  C 71.24 947  73 948.76  73 951  C 73 953.24  71.24 955  69 955  " fill-rule="nonzero" fill="#797979" stroke="none" />
</svg>