<?xml version="1.0" encoding="utf-8"?>
<svg version="1.1" xmlns:xlink="http://www.w3.org/1999/xlink" width="26px" height="22px" xmlns="http://www.w3.org/2000/svg">
  <g transform="matrix(1 0 0 1 -12 -90 )">
    <path d="M 25.6783854166667 17.9265625  C 25.8927951388889 18.1442708333333  26 18.4020833333333  26 18.7  L 26 20.9  C 26 21.1979166666667  25.8927951388889 21.4557291666667  25.6783854166667 21.6734375  C 25.4639756944444 21.8911458333333  25.2100694444444 22  24.9166666666667 22  L 1.08333333333333 22  C 0.789930555555556 22  0.536024305555556 21.8911458333333  0.321614583333333 21.6734375  C 0.107204861111111 21.4557291666667  0 21.1979166666667  0 20.9  L 0 18.7  C 0 18.4020833333333  0.107204861111111 18.1442708333333  0.321614583333333 17.9265625  C 0.536024305555556 17.7088541666667  0.789930555555556 17.6  1.08333333333333 17.6  L 24.9166666666667 17.6  C 25.2100694444444 17.6  25.4639756944444 17.7088541666667  25.6783854166667 17.9265625  Z M 25.6783854166667 9.1265625  C 25.8927951388889 9.34427083333333  26 9.60208333333333  26 9.9  L 26 12.1  C 26 12.3979166666667  25.8927951388889 12.6557291666667  25.6783854166667 12.8734375  C 25.4639756944444 13.0911458333333  25.2100694444444 13.2  24.9166666666667 13  L 1.08333333333333 13  C 0.789930555555556 13.2  0.536024305555556 13.0911458333333  0.321614583333333 12.8734375  C 0.107204861111111 12.6557291666667  0 12.3979166666667  0 12.1  L 0 9.9  C 0 9.60208333333333  0.107204861111111 9.34427083333333  0.321614583333333 9.1265625  C 0.536024305555556 8.90885416666667  0.789930555555556 8.8  1.08333333333333 9  L 24.9166666666667 9  C 25.2100694444444 8.8  25.4639756944444 8.90885416666667  25.6783854166667 9.1265625  Z M 25.6783854166667 0.326562500000001  C 25.8927951388889 0.544270833333332  26 0.802083333333332  26 1.1  L 26 3.3  C 26 3.59791666666666  25.8927951388889 3.85572916666666  25.6783854166667 4.0734375  C 25.4639756944444 4.29114583333333  25.2100694444444 4.4  24.9166666666667 4.4  L 1.08333333333333 4.4  C 0.789930555555556 4.4  0.536024305555556 4.29114583333333  0.321614583333333 4.0734375  C 0.107204861111111 3.85572916666666  0 3.59791666666666  0 3.3  L 0 1.1  C 0 0.802083333333332  0.107204861111111 0.544270833333332  0.321614583333333 0.326562500000001  C 0.536024305555556 0.108854166666665  0.789930555555556 0  1.08333333333333 0  L 24.9166666666667 0  C 25.2100694444444 0  25.4639756944444 0.108854166666665  25.6783854166667 0.326562500000001  Z " fill-rule="nonzero" fill="#555555" stroke="none" transform="matrix(1 0 0 1 12 90 )" />
  </g>
</svg>