<?xml version="1.0" encoding="utf-8"?>
<svg version="1.1" xmlns:xlink="http://www.w3.org/1999/xlink" width="11px" height="11px" xmlns="http://www.w3.org/2000/svg">
  <g transform="matrix(1 0 0 1 -66 -54 )">
    <path d="M 10.505 5.83  C 10.505 2.97785714285715  8.17928571428571 0.667857142857138  5.335 0.667857142857138  C 2.48285714285715 0.667857142857138  0.165000000000006 2.98571428571428  0.165000000000006 5.83785714285714  C 0.165000000000006 8.68999999999999  2.48285714285714 11  5.335 11  C 8.18714285714287 11  10.505 8.68214285714286  10.505 5.83  Z M 5.79071428571429 5.83  C 5.79071428571429 6.08142857142857  5.57857142857142 6.28571428571429  5.335 6.28571428571429  C 5.08357142857144 6.28571428571429  4.87928571428572 6.08142857142857  4.87928571428572 5.83  C 4.87928571428572 5.57857142857144  5.08357142857144 5.37428571428572  5.335 5.37428571428572  C 5.58642857142857 5.37428571428572  5.79071428571429 5.57857142857144  5.79071428571429 5.83  Z " fill-rule="nonzero" fill="#555555" stroke="none" transform="matrix(1 0 0 1 66 54 )" />
  </g>
</svg>