<?xml version="1.0" encoding="utf-8"?>
<svg version="1.1" xmlns:xlink="http://www.w3.org/1999/xlink" width="11px" height="11px" xmlns="http://www.w3.org/2000/svg">
  <g transform="matrix(1 0 0 1 -44 -54 )">
    <path d="M 10.4735714285714 5.83  C 10.4735714285714 2.97785714285715  8.14785714285714 0.667857142857138  5.30357142857143 0.667857142857138  C 2.45142857142857 0.667857142857138  0.13357142857143 2.98571428571428  0.13357142857143 5.83785714285714  C 0.13357142857143 8.68999999999999  2.45142857142857 11  5.30357142857143 11  C 8.15571428571429 11  10.4735714285714 8.68214285714286  10.4735714285714 5.83  Z M 5.75928571428571 5.83  C 5.75928571428571 6.08142857142857  5.555 6.28571428571429  5.30357142857143 6.28571428571429  C 5.05214285714286 6.28571428571429  4.84785714285714 6.08142857142857  4.84785714285714 5.83  C 4.84785714285714 5.57857142857144  5.05214285714286 5.37428571428572  5.30357142857143 5.37428571428572  C 5.555 5.37428571428572  5.75928571428571 5.57857142857144  5.75928571428571 5.83  Z " fill-rule="nonzero" fill="#555555" stroke="none" transform="matrix(1 0 0 1 44 54 )" />
  </g>
</svg>