<?xml version="1.0" encoding="utf-8"?>
<svg version="1.1" xmlns:xlink="http://www.w3.org/1999/xlink" width="63px" height="41px" xmlns="http://www.w3.org/2000/svg">
  <g transform="matrix(1 0 0 1 -23 -11 )">
    <path d="M 62.5275 13.5694230769231  C 62.0865 12.9701923076923  61.385625 12.6153846153846  60.6375 12.6153846153846  L 51.7545 12.6153846153846  C 50.63625 6.34711538461538  45.163125 1.57692307692308  38.5875 1.57692307692308  C 32.011875 1.57692307692308  26.53875 6.34711538461538  25.4205 12.6153846153846  L 19.285875 12.6153846153846  L 16.45875 1.76615384615384  C 16.191 0.725384615384617  15.253875 0  14.175 0  L 2.3625 0  C 1.05525 0  0 1.05653846153846  0 2.36538461538462  C 0 3.67423076923077  1.05525 4.73076923076923  2.3625 4.73076923076923  L 12.348 4.73076923076923  L 21.34125 39.2338461538462  C 21.609 40.2746153846154  22.546125 41  23.625 41  L 53.55 41  C 54.597375 41  55.510875 40.3140384615385  55.810125 39.3126923076923  L 62.897625 15.6588461538462  C 63.11025 14.9413461538462  62.976375 14.1686538461538  62.5275 13.5694230769231  Z M 29.925 14.9807692307692  C 29.925 10.1948076923077  33.807375 6.30769230769231  38.5875 6.30769230769231  C 43.367625 6.30769230769231  47.25 10.1948076923077  47.25 14.9807692307692  C 47.25 19.7667307692308  43.367625 23.6538461538462  38.5875 23.6538461538462  C 33.807375 23.6538461538462  29.925 19.7667307692308  29.925 14.9807692307692  Z M 57.463875 17.3461538461538  L 51.793875 36  L 25.452 36  L 20.52225 17.3461538461538  L 25.4205 17.3461538461538  C 26.53875 23.6144230769231  32.011875 28.3846153846154  38.5875 28.3846153846154  C 45.163125 28.3846153846154  50.63625 23.6144230769231  51.7545 17.3461538461538  L 57.463875 17.3461538461538  Z " fill-rule="nonzero" fill="#555555" stroke="none" transform="matrix(1 0 0 1 23 11 )" />
  </g>
</svg>