<?xml version="1.0" encoding="utf-8"?>
<svg version="1.1" xmlns:xlink="http://www.w3.org/1999/xlink" width="15px" height="12px" xmlns="http://www.w3.org/2000/svg">
  <g transform="matrix(1 0 0 1 -55 -20 )">
    <path d="M 2.98421052631578 10.712  C 3.56052631578947 11.384  4.39736842105263 11.784  5.27368421052632 11.808  C 5.30526315789474 11.808  5.33684210526316 11.808  5.36842105263158 11.808  C 6.21315789473684 11.808  7.03421052631579 11.464  7.63421052631579 10.856  L 13.7131578947368 4.696  C 14.6368421052632 3.76  14.6368421052632 2.24  13.7131578947368 1.304  C 12.7894736842105 0.367999999999995  11.2894736842105 0.367999999999995  10.3657894736842 1.304  L 5.44736842105262 6.288  L 4.15263157894736 4.8  C 3.28421052631578 3.808  1.79210526315789 3.72  0.805263157894728 4.592  C -0.173684210526326 5.472  -0.268421052631587 6.992  0.599999999999993 7.984  L 2.98421052631578 10.712  Z " fill-rule="nonzero" fill="#555555" stroke="none" transform="matrix(1 0 0 1 55 20 )" />
  </g>
</svg>