<?xml version="1.0" encoding="utf-8"?>
<svg version="1.1" xmlns:xlink="http://www.w3.org/1999/xlink" width="31px" height="22px" xmlns="http://www.w3.org/2000/svg">
  <g transform="matrix(1 0 0 1 -19 -292 )">
    <path d="M 16.9679226069246 20.8408602150538  C 16.1997623896809 21.6136200716846  15.7104548540394 22  15.5 22  C 15.2895451459606 22  14.8002376103191 21.6136200716846  14.0320773930754 20.8408602150538  C 13.2639171758316 20.0681003584229  12.8798370672098 19.5765830346475  12.8798370672098 19.3663082437276  C 12.8798370672098 19.0298685782557  13.2086727766463 18.7459976105137  13.8663441955193 18.5146953405018  C 14.5240156143924 18.2833930704898  15.0685675492193 18.1677419354839  15.5 18.1677419354839  C 15.9314324507807 18.1677419354839  16.4759843856076 18.2833930704898  17.1336558044807 18.5146953405018  C 17.7913272233537 18.7459976105137  18.1201629327902 19.0298685782557  18.1201629327902 19.3663082437276  C 18.1201629327902 19.5765830346475  17.7360828241684 20.0681003584229  16.9679226069246 20.8408602150538  Z M 21.2375254582485 16.5433691756272  C 20.4430583842498 17.3318996415771  19.9511201629328 17.726164874552  19.7617107942974 17.726164874552  C 19.7406653088934 17.726164874552  19.530210454854 17.594743130227  19.1303462321792 17.3318996415771  C 18.7304820095044 17.0690561529271  18.1964528173795 16.8062126642772  17.5282586558045 16.5433691756272  C 16.8600644942295 16.2805256869773  16.183978275628 16.1491039426523  15.5 16.1491039426523  C 14.816021724372 16.1491039426523  14.1399355057705 16.2805256869773  13.4717413441955 16.5433691756272  C 12.8035471826205 16.8062126642772  12.2721486761711 17.0690561529271  11.8775458248473 17.3318996415771  C 11.4829429735234 17.594743130227  11.2698574338086 17.726164874552  11.2382892057026 17.726164874552  C 11.0488798370672 17.726164874552  10.5569416157502 17.3318996415771  9.76247454175153 16.5433691756272  C 8.96800746775289 15.7548387096774  8.57077393075356 15.2659498207885  8.57077393075356 15.0767025089606  C 8.57077393075356 14.9400238948626  8.62338764426341 14.8191158900836  8.7286150712831 14.7139784946237  C 9.54938900203666 13.9044205495818  10.5806177868296 13.268339307049  11.8223014256619 12.8057347670251  C 13.0639850644942 12.3431302270012  14.2898845892736 12.1118279569892  15.5 12.1118279569892  C 16.7101154107264 12.1118279569892  17.9360149355058 12.3431302270012  19.1776985743381 12.8057347670251  C 20.4193822131704 13.268339307049  21.4506109979633 13.9044205495818  22.2713849287169 14.7139784946237  C 22.3766123557366 14.8191158900836  22.4292260692464 14.9400238948626  22.4292260692464 15.0767025089606  C 22.4292260692464 15.2659498207885  22.0319925322471 15.7548387096774  21.2375254582485 16.5433691756272  Z M 25.5229124236253 12.2537634408602  C 24.7337067209776 13.04229390681  24.249660556687 13.4365591397849  24.0707739307536 13.4365591397849  C 23.9550237610319 13.4365591397849  23.8340122199593 13.394504181601  23.7077393075356 13.310394265233  C 22.2766463000679 12.2064516129032  20.9507807196198 11.3942652329749  19.7301425661914 10.873835125448  C 18.5095044127631 10.3534050179211  17.0994568906993 10.0931899641577  15.5 10.0931899641577  C 14.6055668703327 10.0931899641577  13.7085030549898 10.2088410991637  12.8088085539715 10.4401433691756  C 11.9091140529532 10.6714456391876  11.1251697216565 10.9500597371565  10.4569755600815 11.2759856630824  C 9.78878139850645 11.6019115890084  9.19161575016972 11.9278375149343  8.66547861507128 12.2537634408602  C 8.13934147997285 12.5796893667861  7.72369314324508 12.8583034647551  7.41853360488798 13.089605734767  C 7.11337406653089 13.320908004779  6.95027155465037 13.4365591397849  6.92922606924644 13.4365591397849  C 6.75033944331297 13.4365591397849  6.2662932790224 13.04229390681  5.47708757637475 12.2537634408602  C 4.68788187372709 11.4652329749104  4.29327902240326 10.9763440860215  4.29327902240326 10.7870967741935  C 4.29327902240326 10.6609318996416  4.3458927359131 10.5452807646356  4.45112016293279 10.4401433691756  C 5.84012219959267 9.05232974910394  7.52376103190767 7.97467144563919  9.5020366598778 7.20716845878136  C 11.4803122878479 6.43966547192354  13.479633401222 6.05591397849462  15.5 6.05591397849462  C 17.520366598778 6.05591397849462  19.5196877121521 6.43966547192354  21.4979633401222 7.20716845878136  C 23.4762389680923 7.97467144563919  25.1598778004073 9.05232974910394  26.5488798370672 10.4401433691756  C 26.6541072640869 10.5452807646356  26.7067209775967 10.6609318996416  26.7067209775967 10.7870967741935  C 26.7067209775967 10.9763440860215  26.3121181262729 11.4652329749104  25.5229124236253 12.2537634408602  Z M 29.808299389002 7.97992831541219  C 29.0138323150034 8.76845878136201  28.5271554650373 9.16272401433692  28.3482688391039 9.16272401433692  C 28.2325186693822 9.16272401433692  28.1167684996606 9.11541218637993  28.0010183299389 9.02078853046595  C 26.1174473862865 7.37013142174432  24.1628479293958 6.12688172043011  22.1372199592668 5.2910394265233  C 20.1115919891378 4.45519713261649  17.8991853360489 4.03727598566308  15.5 4.03727598566308  C 13.1008146639511 4.03727598566308  10.8884080108622 4.45519713261649  8.8627800407332 5.2910394265233  C 6.83715207060421 6.12688172043011  4.88255261371351 7.37013142174432  2.9989816700611 9.02078853046595  C 2.88323150033944 9.11541218637993  2.76748133061779 9.16272401433692  2.65173116089613 9.16272401433692  C 2.47284453496266 9.16272401433692  1.98616768499661 8.76845878136201  1.19170061099796 7.97992831541219  C 0.397233536999321 7.19139784946237  0 6.70250896057348  0 6.51326164874552  C 0 6.37658303464755  0.0526137135098439 6.25567502986858  0.157841140529532 6.1505376344086  C 2.12559402579769 4.19498207885305  4.46690427698574 2.68100358422939  7.18177189409369 1.60860215053763  C 9.89663951120163 0.536200716845877  12.6693822131704 0  15.5 0  C 18.3306177868296 0  21.1033604887984 0.536200716845877  23.8182281059063 1.60860215053763  C 26.5330957230143 2.68100358422939  28.8744059742023 4.19498207885305  30.8421588594705 6.1505376344086  C 30.9473862864902 6.25567502986858  31 6.37658303464755  31 6.51326164874552  C 31 6.70250896057348  30.6027664630007 7.19139784946237  29.808299389002 7.97992831541219  Z " fill-rule="nonzero" fill="#000000" stroke="none" transform="matrix(1 0 0 1 19 292 )" />
  </g>
</svg>