<?xml version="1.0" encoding="utf-8"?>
<svg version="1.1" xmlns:xlink="http://www.w3.org/1999/xlink" width="9px" height="11px" xmlns="http://www.w3.org/2000/svg">
  <g transform="matrix(1 0 0 1 -41 -307 )">
    <path d="M 2.5 3.5  L 2.5 5  L 6.5 5  L 6.5 3.5  C 6.5 2.94791666666667  6.3046875 2.4765625  5.9140625 2.0859375  C 5.5234375 1.6953125  5.05208333333333 1.5  4.5 1.5  C 3.94791666666667 1.5  3.4765625 1.6953125  3.0859375 2.0859375  C 2.6953125 2.4765625  2.5 2.94791666666667  2.5 3.5  Z M 8.78125 5.21875  C 8.92708333333333 5.36458333333333  9 5.54166666666667  9 5.75  L 9 10.25  C 9 10.4583333333333  8.92708333333333 10.6354166666667  8.78125 10.78125  C 8.63541666666667 10.9270833333333  8.45833333333333 11  8.25 11  L 0.75 11  C 0.541666666666667 11  0.364583333333333 10.9270833333333  0.21875 10.78125  C 0.0729166666666667 10.6354166666667  0 10.4583333333333  0 10.25  L 0 5.75  C 0 5.54166666666667  0.0729166666666667 5.36458333333333  0.21875 5.21875  C 0.364583333333333 5.07291666666667  0.541666666666667 5  0.75 5  L 1 5  L 1 3.5  C 1 2.54166666666667  1.34375 1.71875  2.03125 1.03125  C 2.71875 0.34375  3.54166666666667 0  4.5 0  C 5.45833333333333 0  6.28125 0.34375  6.96875 1.03125  C 7.65625 1.71875  8 2.54166666666667  8 3.5  L 8 5  L 8.25 5  C 8.45833333333333 5  8.63541666666667 5.07291666666667  8.78125 5.21875  Z " fill-rule="nonzero" fill="#000000" stroke="none" transform="matrix(1 0 0 1 41 307 )" />
  </g>
</svg>