<?xml version="1.0" encoding="utf-8"?>
<svg version="1.1" xmlns:xlink="http://www.w3.org/1999/xlink" width="16px" height="16px" viewBox="45 122  16 16" xmlns="http://www.w3.org/2000/svg">
  <path d="M 53 122  C 57.48 122  61 125.52  61 130  C 61 134.48  57.48 138  53 138  C 48.52 138  45 134.48  45 130  C 45 125.52  48.52 122  53 122  Z " fill-rule="nonzero" fill="#ffffff" stroke="none" />
  <path d="M 53 122.5  C 57.2 122.5  60.5 125.8  60.5 130  C 60.5 134.2  57.2 137.5  53 137.5  C 48.8 137.5  45.5 134.2  45.5 130  C 45.5 125.8  48.8 122.5  53 122.5  Z " stroke-width="1" stroke="#797979" fill="none" />
  <path d="M 53 134  C 50.76 134  49 132.24  49 130  C 49 127.76  50.76 126  53 126  C 55.24 126  57 127.76  57 130  C 57 132.24  55.24 134  53 134  " fill-rule="nonzero" fill="#797979" stroke="none" />
</svg>