<?xml version="1.0" encoding="utf-8"?>
<svg version="1.1" xmlns:xlink="http://www.w3.org/1999/xlink" width="16px" height="16px" viewBox="45 214  16 16" xmlns="http://www.w3.org/2000/svg">
  <path d="M 53 214  C 57.48 214  61 217.52  61 222  C 61 226.48  57.48 230  53 230  C 48.52 230  45 226.48  45 222  C 45 217.52  48.52 214  53 214  Z " fill-rule="nonzero" fill="#ffffff" stroke="none" />
  <path d="M 53 214.5  C 57.2 214.5  60.5 217.8  60.5 222  C 60.5 226.2  57.2 229.5  53 229.5  C 48.8 229.5  45.5 226.2  45.5 222  C 45.5 217.8  48.8 214.5  53 214.5  Z " stroke-width="1" stroke="#797979" fill="none" />
  <path d="M 53 226  C 50.76 226  49 224.24  49 222  C 49 219.76  50.76 218  53 218  C 55.24 218  57 219.76  57 222  C 57 224.24  55.24 226  53 226  " fill-rule="nonzero" fill="#797979" stroke="none" />
</svg>