<?xml version="1.0" encoding="utf-8"?>
<svg version="1.1" xmlns:xlink="http://www.w3.org/1999/xlink" width="23px" height="23px" xmlns="http://www.w3.org/2000/svg">
  <g transform="matrix(1 0 0 1 -343 -43 )">
    <path d="M 22.4579124579125 17.1919191919192  C 22.8193041526375 17.5533108866442  23 17.9921436588103  23 18.5084175084175  C 23 19.0246913580247  22.8193041526375 19.4635241301908  22.4579124579125 19.8249158249158  L 19.8249158249158 22.4579124579125  C 19.4635241301908 22.8193041526375  19.0246913580247 23  18.5084175084175 23  C 17.9921436588103 23  17.5533108866442 22.8193041526375  17.1919191919192 22.4579124579125  L 11.5 16.7659932659933  L 5.80808080808081 22.4579124579125  C 5.44668911335578 22.8193041526375  5.00785634118968 23  4.49158249158249 23  C 3.97530864197531 23  3.5364758698092 22.8193041526375  3.17508417508418 22.4579124579125  L 0.542087542087542 19.8249158249158  C 0.180695847362514 19.4635241301908  0 19.0246913580247  0 18.5084175084175  C 0 17.9921436588103  0.180695847362514 17.5533108866442  0.542087542087542 17.1919191919192  L 6.23400673400673 11.5  L 0.542087542087542 5.80808080808081  C 0.180695847362514 5.44668911335578  0 5.00785634118968  0 4.49158249158249  C 0 3.97530864197531  0.180695847362514 3.5364758698092  0.542087542087542 3.17508417508418  L 3.17508417508418 0.542087542087542  C 3.5364758698092 0.180695847362513  3.97530864197531 0  4.49158249158249 0  C 5.00785634118968 0  5.44668911335578 0.180695847362513  5.80808080808081 0.542087542087542  L 11.5 6.23400673400674  L 17.1919191919192 0.542087542087542  C 17.5533108866442 0.180695847362513  17.9921436588103 0  18.5084175084175 0  C 19.0246913580247 0  19.4635241301908 0.180695847362513  19.8249158249158 0.542087542087542  L 22.4579124579125 3.17508417508418  C 22.8193041526375 3.5364758698092  23 3.97530864197531  23 4.49158249158249  C 23 5.00785634118968  22.8193041526375 5.44668911335578  22.4579124579125 5.80808080808081  L 16.7659932659933 11.5  L 22.4579124579125 17.1919191919192  Z " fill-rule="nonzero" fill="#555555" stroke="none" transform="matrix(1 0 0 1 343 43 )" />
  </g>
</svg>