<?xml version="1.0" encoding="utf-8"?>
<svg version="1.1" xmlns:xlink="http://www.w3.org/1999/xlink" width="6px" height="8px" xmlns="http://www.w3.org/2000/svg">
  <g transform="matrix(1 0 0 1 -131 -229 )">
    <path d="M 5.06174375 4.05714285714286  C 5.06174375 2.20601428571429  4.007475 0.700000000000001  2.71174375 0.700000000000001  C 1.4159390625 0.700000000000001  0.361743749999999 2.20601428571429  0.361743749999999 4.05714285714286  C 0.361743749999999 5.90827142857142  1.4159390625 7.41428571428572  2.71174375 7.41428571428572  C 4.0075484375 7.41428571428572  5.06174375 5.90827142857142  5.06174375 4.05714285714286  Z M 3.88674375 4.05714285714286  C 3.88674375 5.00796964285714  3.3842109375 6.07142857142857  2.71174375 6.07142857142857  C 2.0392765625 6.07142857142857  1.53674375 5.00796964285714  1.53674375 4.05714285714286  C 1.53674375 3.10631607142857  2.0392765625 2.04285714285714  2.71174375 2.04285714285714  C 3.3842109375 2.04285714285714  3.88674375 3.10631607142857  3.88674375 4.05714285714286  Z " fill-rule="nonzero" fill="#555555" stroke="none" transform="matrix(1 0 0 1 131 229 )" />
  </g>
</svg>