<?xml version="1.0" encoding="utf-8"?>
<svg version="1.1" xmlns:xlink="http://www.w3.org/1999/xlink" width="6px" height="8px" xmlns="http://www.w3.org/2000/svg">
  <g transform="matrix(1 0 0 1 -118 -229 )">
    <path d="M 5.48674375 4.05714285714286  C 5.48674375 2.20601428571429  4.432475 0.700000000000001  3.13674375 0.700000000000001  C 1.8409390625 0.700000000000001  0.786743749999999 2.20601428571429  0.786743749999999 4.05714285714286  C 0.786743749999999 5.90827142857142  1.8409390625 7.41428571428572  3.13674375 7.41428571428572  C 4.4325484375 7.41428571428572  5.48674375 5.90827142857142  5.48674375 4.05714285714286  Z M 4.31174375 4.05714285714286  C 4.31174375 5.00796964285714  3.8092109375 6.07142857142857  3.13674375 6.07142857142857  C 2.4642765625 6.07142857142857  1.96174375 5.00796964285714  1.96174375 4.05714285714286  C 1.96174375 3.10631607142857  2.4642765625 2.04285714285714  3.13674375 2.04285714285714  C 3.8092109375 2.04285714285714  4.31174375 3.10631607142857  4.31174375 4.05714285714286  Z " fill-rule="nonzero" fill="#555555" stroke="none" transform="matrix(1 0 0 1 118 229 )" />
  </g>
</svg>