<?xml version="1.0" encoding="utf-8"?>
<svg version="1.1" xmlns:xlink="http://www.w3.org/1999/xlink" width="23px" height="39px" xmlns="http://www.w3.org/2000/svg">
  <g transform="matrix(1 0 0 1 -117 -201 )">
    <path d="M 22.4660525123782 36.6221290364583  C 22.4660525123782 36.1157159666805  22.2626661317762 35.6300450801879  21.9006376488095 35.2719622395833  L 21.6101188988095 34.9846013020833  C 22.1049890480021 34.0707712324261  22.3612778862063 33.0491565145369  22.3557193452381 32.0125  C 22.3557193452381 28.8540755208333  20.0465296130952 26.284375  17.208100297619 26.284375  C 16.8768327073019 26.2846339534138  16.5465646171558 26.3203239556859  16.2230551339286 26.39082265625  L 13.3436057291667 0.755792578125001  C 13.3074090950125 0.433396705196963  13.0318760292203 0.189507109992039  12.7039336309524 0.189583333333333  L 10.1301241071429 0.189583333333333  C 9.80321662008792 0.189608241672089  9.52828377775122 0.432089469196568  9.49093459821429 0.753326302083333  L 6.7530447172619 24.3022846354167  C 6.75248169642857 24.3068989583333  6.75256212797619 24.3114337239583  6.75215997023809 24.316048046875  L 6.55671130952381 26.37984375  C 6.25044055720662 26.3167979364303  5.93846824615938 26.2848095493191  5.62563571428571 26.284375  C 2.78720639880952 26.284375  0.478016666666665 28.8540755208333  0.478016666666665 32.0125  C 0.478016666666665 35.1709244791667  2.78720639880952 37.740625  5.62563571428571 37.740625  C 8.4640650297619 37.740625  10.7732547619048 35.1709244791667  10.7732547619048 32.0125  C 10.776288185533 31.0727246328124  10.5654702947992 30.1443213043775  10.1564252232143 29.2960958333333  L 10.6981316964286 25.0114583333333  L 12.135845610119 25.0114583333333  L 12.6772303571429 29.2962549479167  C 12.2682575281248 30.1444455510952  12.0574688747212 31.0727868007407  12.06048125 32.0125  C 12.06048125 35.1709244791667  14.3696709821429 37.740625  17.208100297619 37.740625  C 17.7126562374351 37.7407802413935  18.2138056707864 37.6588844287774  18.6914993303571 37.4982139322917  L 19.1707104910714 37.9722958333333  C 19.5327250381807 38.3303648899634  20.0237157293621 38.5315251045218  20.5356740699405 38.5315251045218  C 21.601792645101 38.5315251045218  22.4660525123782 37.6766593662366  22.4660525123782 36.6221290364583  Z M 9.48667172619047 32.0125  C 9.48667172619047 34.4690700520833  7.75514136904762 36.4677083333333  5.62595744047619 36.4677083333333  C 3.49709523809524 36.4677083333333  1.7652431547619 34.4690700520833  1.7652431547619 32.0125  C 1.7652431547619 29.5559299479167  3.49709523809524 27.5572916666667  5.62595744047619 27.5572916666667  C 7.75481964285714 27.5572916666667  9.48667172619047 29.5559299479167  9.48667172619047 32.0125  Z M 9.40117299107143 25.0114583333333  L 9.05571949404762 27.7456833333333  C 8.68907623070891 27.3784233387518  8.26824634612205 27.0682836437349  7.80758273809523 26.8258419270833  L 7.97849977678572 25.0114583333333  L 9.40117299107143 25.0114583333333  Z M 12.7039336309524 23.7385416666667  L 8.11394650297619 23.7385416666667  L 10.7038423363095 1.4625  L 12.12804375 1.4625  L 14.9796638392857 26.8492317708333  C 14.5371742821738 27.0885173734319  14.1324262250057 27.3905008990003  13.7782578125 27.7456037760417  L 13.3423992559524 24.2959200520833  C 13.3020857731741 23.9774790307191  13.0283882207185 23.7385419698864  12.7039336309524 23.7385416666667  Z M 20.9910372767857 37.07234375  C 20.7396132112048 37.3205077822885  20.3325392441524 37.3205077822885  20.0811151785714 37.07234375  L 19.3044681547619 36.3041385416667  C 19.1157848003891 36.1175331961023  18.830245072952 36.0654705249728  18.5866970238095 36.173266796875  C 18.1535620920374 36.3668327166485  17.6837933238621 36.4671683786197  17.2085024553571 36.4676287760417  C 15.0796402529762 36.4676287760417  13.3477881696429 34.4689904947917  13.3477881696429 32.0124204427083  C 13.3477881696429 29.555850390625  15.0796402529762 27.557212109375  17.2085024553571 27.557212109375  C 19.3373646577381 27.557212109375  21.0692167410714 29.555850390625  21.0692167410714 32.0124204427083  C 21.077621671496 32.9775560806455  20.7976129976661 33.9236436250983  20.2643382440476 34.73192734375  C 20.095260403089 34.9842590251808  20.1292643618456 35.3194714047359  20.3456545386905 35.5335466145833  L 20.9910372767857 36.1719938802083  C 21.2422830740652 36.4205398714033  21.2422830740652 36.8234795296384  20.9910372767857 37.0720255208333  Z " fill-rule="nonzero" fill="#555555" stroke="none" transform="matrix(1 0 0 1 117 201 )" />
  </g>
</svg>