<?xml version="1.0" encoding="utf-8"?>
<svg version="1.1" xmlns:xlink="http://www.w3.org/1999/xlink" width="13px" height="39px" xmlns="http://www.w3.org/2000/svg">
  <g transform="matrix(1 0 0 1 -109 -201 )">
    <path d="M 5.07215705513519 25.6479166612582  C 5.07215705513519 24.9449500227581  5.64198974469505 24.3750648017484  6.34495638020833 24.375  L 10.7114583333333 24.375  C 11.7659770275415 24.375  12.6208333333333 23.5201436942082  12.6208333333333 22.465625  C 12.6208333333333 21.4111063057918  11.7659770275415 20.55625  10.7114583333333 20.55625  L 7.52916666666667 20.55625  C 7.17766043526394 20.55625  6.89270833333333 20.2712978980694  6.89270833333333 19.9197916666667  C 6.89270833333333 19.5682854352639  7.17766043526394 19.2833333333333  7.52916666666667 19.2833333333333  L 10.7114583333333 19.2833333333333  C 11.7659770275415 19.2833333333333  12.6208333333333 18.4284770275415  12.6208333333333 17.3739583333333  C 12.6208333333333 16.3194396391252  11.7659770275415 15.4645833333333  10.7114583333333 15.4645833333333  L 7.52916666666667 15.4645833333333  C 7.17766043526394 15.4645833333333  6.89270833333333 15.1796312314027  6.89270833333333 14.828125  C 6.89270833333333 14.4766187685973  7.17766043526394 14.1916666666667  7.52916666666667 14.1916666666667  L 10.7114583333333 14.1916666666667  C 11.7659770275415 14.1916666666667  12.6208333333333 13.3368103608748  12.6208333333333 12.2822916666667  C 12.6208333333333 11.2277729724585  11.7659770275415 10.3729166666667  10.7114583333333 10.3729166666667  L 7.52916666666667 10.3729166666667  C 7.17766043526394 10.3729166666667  6.89270833333333 10.0879645647361  6.89270833333333 9.73645833333334  C 6.89270833333333 9.38495210193061  7.17766043526394 9.1  7.52916666666667 9.1  L 10.7114583333333 9.1  C 11.7659770275415 9.1  12.6208333333333 8.24514369420817  12.6208333333333 7.190625  C 12.6208333333333 6.13610630579183  11.7659770275415 5.28125  10.7114583333333 5.28125  L 7.52916666666667 5.28125  C 7.17766043526394 5.28125  6.89270833333333 4.99629789806939  6.89270833333333 4.64479166666667  C 6.89270833333333 4.29328543526394  7.17766043526394 4.00833333333333  7.52916666666667 4.00833333333333  L 10.7114583333333 4.00833333333333  C 11.7659770275415 4.00833333333333  12.6208333333333 3.1534770275415  12.6208333333333 2.09895833333333  C 12.6208333333333 1.04443963912516  11.7659770275415 0.189583333333333  10.7114583333333 0.189583333333333  L 3.71041666666667 0.189583333333334  C 1.95370339162829 0.191556308241525  0.530097974908193 1.61516172496163  0.528125 3.371875  L 0.528125 37.740625  C 0.528125 38.0921312314027  0.81307710193061 38.3770833333333  1.16458333333333 38.3770833333333  C 3.53141567828849 38.3770833334751  5.45014065663825 36.4583583551254  5.45014065663825 34.0914911459751  C 5.45014065663825 34.0266003338527  5.44866682854974 33.961717891364  5.4457203125 33.8968940104167  L 5.07347174479167 25.7057548177083  C 5.0725953982027 25.6864878817707  5.07215705513519 25.6672035169835  5.07215705513519 25.6479166612582  Z M 6.34495638020833 23.1020833333333  C 5.64917850838611 23.0994494733873  4.98318699623756 23.384212301923  4.5043984375 23.8890640625  C 4.02181418907825 24.3903126285171  3.7675711014111 25.0685532748628  3.8017484375 25.7635134114583  L 4.1740765625 33.9547321614583  C 4.24016415702625 35.4233902820637  3.23771222406053 36.7257241580981  2 37.0376567708333  L 2 3.371875  C 1.8022691978555 2.31786518458415  2.65640685125082 1.46372753118884  3.71041666666667 1.4625  L 10.7114583333333 1.4625  C 11.0629645647361 1.4625  11.3479166666667 1.74745210193061  11.3479166666667 2.09895833333333  C 11.3479166666667 2.45046456473606  11.0629645647361 2.73541666666667  10.7114583333333 2.73541666666667  L 7.52916666666667 2.73541666666667  C 6.47464797245849 2.73541666666667  5.61979166666667 3.5902729724585  5.61979166666667 4.64479166666667  C 5.61979166666667 5.69931036087484  6.47464797245849 6.55416666666667  7.52916666666667 6.55416666666667  L 10.7114583333333 6.55416666666667  C 11.0629645647361 6.55416666666667  11.3479166666667 6.83911876859728  11.3479166666667 7.190625  C 11.3479166666667 7.54213123140272  11.0629645647361 7.82708333333333  10.7114583333333 7.82708333333333  L 7.52916666666667 7.82708333333333  C 6.47464797245849 7.82708333333333  5.61979166666667 8.68193963912516  5.61979166666667 9.73645833333334  C 5.61979166666667 10.7909770275415  6.47464797245849 11.6458333333333  7.52916666666667 11.6458333333333  L 10.7114583333333 11.6458333333333  C 11.0629645647361 11.6458333333333  11.3479166666667 11.9307854352639  11.3479166666667 12.2822916666667  C 11.3479166666667 12.6337978980694  11.0629645647361 12.91875  10.7114583333333 12.91875  L 7.52916666666667 12.91875  C 6.4746480293623 12.91875  5.61979172357048 13.7736063057918  5.61979172357048 14.828125  C 5.61979172357048 15.8826436942082  6.4746480293623 16.7375  7.52916672357047 16.7375  L 10.7114583333333 16.7375  C 11.0629645647361 16.7375  11.3479166666667 17.0224521019306  11.3479166666667 17.3739583333333  C 11.3479166666667 17.7254645647361  11.0629645647361 18.0104166666667  10.7114583333333 18.0104166666667  L 7.52916666666667 18.0104166666667  C 6.47464797245849 18.0104166666667  5.61979166666667 18.8652729724585  5.61979166666667 19.9197916666667  C 5.61979166666667 20.9743103608748  6.47464797245849 21.8291666666667  7.52916666666667 21.8291666666667  L 10.7114583333333 21.8291666666667  C 11.0629645647361 21.8291666666667  11.3479166666667 22.1141187685973  11.3479166666667 22.465625  C 11.3479166666667 22.8171312314027  11.0629645647361 23.1020833333333  10.7114583333333 23.1020833333333  L 6.34495638020833 23.1020833333333  Z " fill-rule="nonzero" fill="#555555" stroke="none" transform="matrix(1 0 0 1 109 201 )" />
  </g>
</svg>