<?xml version="1.0" encoding="utf-8"?>
<svg version="1.1" xmlns:xlink="http://www.w3.org/1999/xlink" width="39px" height="39px" xmlns="http://www.w3.org/2000/svg">
  <g transform="matrix(1 0 0 1 -34 -202 )">
    <path d="M 27.5155752211515 0.995786588498531  C 27.5155752211515 0.995786588498531  27.5132809590834 1.0049818451999  27.5132809590834 1.0049818451999  C 27.976601265993 1.46829532394848  28.2082921461719 2.07816389651051  28.2082921461719 2.68775934263571  C 28.208474230463 3.29701338071508  27.9773842284448 3.9067453900587  27.5158096546763 4.36844287072377  C 27.5158096546763 4.36844287072377  23.2054750365098 8.67858288630407  23.2054750365098 8.67858288630407  C 23.2054750365098 8.67858288630407  18.2508409126394 13.0309664574237  18.2508409126394 13.0309664574237  C 18.2508409126394 13.0309664574237  20.6188154131962 14.7968199126819  20.6188154131962 14.7968199126819  C 20.6188154131962 14.7968199126819  26.1252455797333 9.29024954124078  26.1252455797333 9.29024954124078  C 26.1252455797333 9.29024954124078  29.2815265467162 6.13415976276359  29.2815265467162 6.13415976276359  C 29.292906814911 6.12277949456869  29.3056071942165 6.11139922637391  29.3182620524492 6.10047416890686  C 29.7780294396283 5.65964810011128  30.3722228307786 5.4389846998131  30.9644906805504 5.4389846998131  C 31.5724724046456 5.4389846998131  32.1819039749088 5.67084628401501  32.6452242818184 6.13404596008169  C 33.1082441496476 6.59738219936679  33.340114838064 7.20661347690978  33.340114838064 7.81459292495134  C 33.340114838064 8.4226861756748  33.1082441496476 9.03196297429055  32.6452242818184 9.49527645303926  C 32.6452242818184 9.49527645303926  29.4889433148355 12.6513662315165  29.4889433148355 12.6513662315165  C 29.4889433148355 12.6513662315165  23.9826984190647 18.1578000397393  23.9826984190647 18.1578000397393  C 23.9826984190647 18.1578000397393  25.748349305549 20.5258938055067  25.748349305549 20.5258938055067  C 25.748349305549 20.5258938055067  30.1007237724541 15.5713154449506  30.1007237724541 15.5713154449506  C 30.1007237724541 15.5713154449506  34.4109411738583 11.26092506347  34.4109411738583 11.26092506347  C 34.4223214420531 11.249544795275  34.4350218213586 11.2381645270803  34.4470849056451 11.2279222857049  C 34.9059486995296 10.7870051747636  35.5002627215228 10.5663190139291  36.0934910659302 10.5663190139291  C 36.7016548743165 10.5663190139291  37.3107245520511 10.7982488797401  37.7742269432518 11.2614030347342  C 38.2375472501614 11.7247165134828  38.4692973077349 12.3349264940905  38.4692973077349 12.944362616461  C 38.4692973077349 13.552478627721  38.2373651658703 14.1614140182909  37.7742269432518 14.6249095813307  C 37.7742269432518 14.6249095813307  29.1116965283908 23.8897189996128  29.1116965283908 23.8897189996128  C 29.1116965283908 23.8897189996128  35.5307345276413 30.3086227116986  35.5307345276413 30.3086227116986  C 35.5307345276413 30.3086227116986  35.5366522671026 30.3154508726155  35.5366522671026 30.3154508726155  C 35.5366522671026 30.3154508726155  35.5721814644069 30.3516401254751  35.5721814644069 30.3516401254751  C 35.5721814644069 30.3516401254751  35.5799200467794 30.358468286392  35.5799200467794 30.358468286392  C 35.591983131066 30.3698485545868  35.6040006942797 30.3789527691428  35.6154492440838 30.3910158534292  C 36.275227120841 31.0507982822937  36.6052662787598 31.9182478451778  36.6054483630509 32.7860388161078  C 36.6054483630509 33.6514399307169  36.2746239666267 34.517432819272  35.6134007958087 35.1789450489022  C 34.9518749098567 35.8400703494137  34.0858797452479 36.1710540695926  33.2204900109071 36.1710540695926  C 32.3608791767556 36.1710540695926  31.5003647493094 35.8443948513276  30.8408873116325 35.1919640757171  C 30.8408873116325 35.1919640757171  30.8210856449735 35.1714795929663  30.8210856449735 35.1714795929663  C 30.8210856449735 35.1714795929663  30.7855564476692 35.1348351293789  30.7855564476692 35.1348351293789  C 30.7855564476692 35.1348351293789  30.7782730760245 35.128006968462  30.7782730760245 35.128006968462  C 30.7655271756462 35.1166267002672  30.7535778940416 35.1052464320724  30.742152104774 35.095004190697  C 30.742152104774 35.095004190697  24.7336140356335 29.0862681048899  24.7336140356335 29.0862681048899  C 24.7336140356335 29.0862681048899  23.1384024670337 30.6813492556163  23.1384024670337 30.6813492556163  C 22.4774783696639 31.3422924718367  21.5954647947547 31.6615545157749  20.7077879431811 31.6433005655904  C 19.8276409598613 31.6250921364787  18.340111605651 31.2752626921691  17.6626865746094 30.597818087066  C 17.0074234778504 29.942496723334  16.2729031860645 29.2426785109599  15.4577414034284 28.4662938541709  C 15.4577414034284 28.4662938541709  15.2704722621213 28.2878512488757  15.2704722621213 28.2878512488757  C 15.2704722621213 28.2878512488757  6.30723259934934 37.2510870423565  6.30723259934934 37.2510870423565  C 6.29585233115449 37.2624673105514  6.28435598422406 37.2738475787462  6.27229289993752 37.2836346093938  C 5.61733274591789 37.9210889520601  4.76416633003977 38.240100630098  3.91226562759028 38.240100630098  C 3.04591061890116 38.240100630098  2.17846977330249 37.9101866551294  1.51947376649131 37.2513601687932  C 0.860441342821903 36.5920557111928  0.530703192996864 35.7246289088451  0.530703192996864 34.8584539359989  C 0.530703192996864 33.9925748501257  0.860803258111035 33.1247838791956  1.52052084220738 32.4645690001398  C 1.52052084220738 32.4645690001398  10.4537685137284 23.5313315936207  10.4537685137284 23.5313315936207  C 7.69004466320343 20.6319351445463  4.99515777893543 16.7729807241809  3.53364683601205 13.6014593020316  C 1.93861241266695 10.1401279700322  1.78834901294133 6.78354062649815  4.50443264818584 4.06745753750647  C 4.64904399219141 3.92270052606798  4.73949618464698 3.82751596288635  4.83158258361532 3.73066988054818  C 4.96968441421344 3.58545765838182  5.11235815375616 3.4350787944552  5.19703554291893 3.35040959908538  C 6.07302827313691 2.47447035612811  7.0301450175765 1.8033076590686  8.12144559388009 2.89460709734539  C 8.12144559388009 2.89460709734539  14.8855176200283 9.65867434378081  14.8855176200283 9.65867434378081  C 14.8855176200283 9.65867434378081  24.1503115611457 0.996150757080744  24.1506711776206 0.995786588498531  C 24.6136318680553 0.532837278332031  25.2238441247167 0.301066736275773  25.8331527880834 0.301066736275773  C 26.4424022740555 0.301066736275773  27.0526168067705 0.532837278332031  27.5155752211515 0.995786588498531  Z M 27.0836189333869 2.68659855527915  C 27.0836189333869 2.68659855527915  27.0789894402853 2.68775934263571  27.0789894402853 2.68775934263571  C 27.0789894402853 2.36735927187805  26.9577668234737 2.04709576433854  26.7152828969388 1.80460500964279  C 26.4734749583347 1.56275154996582  26.1531909663125 1.44150617261794  25.8327863434475 1.44150617261794  C 25.5123225431879 1.44150617261794  25.1920385511657 1.56281983157496  24.9499301734812 1.80492365715224  C 24.9499301734812 1.80492365715224  14.9055070611125 11.2469956151994  14.9055070611125 11.2469956151994  C 14.9055070611125 11.2469956151994  14.8753925954153 11.2777223393256  14.8753925954153 11.2777223393256  C 13.5717343937529 12.5946924959061  12.7860229243622 14.2312661044709  12.5191599596949 15.9325479179915  C 12.2470568367347 17.6674470437596  12.5132422202336 20.0737557501255  13.3172178820502 21.6773038203887  C 13.4458035323838 21.8942117321825  13.4167815724333 22.1788094791993  13.2303090498998 22.3653320749129  C 13.2303090498998 22.3653320749129  11.647077034418 23.9484867045709  11.647077034418 23.9484867045709  C 11.647077034418 23.9484867045709  2.3231418196586 33.2724087182192  2.3231418196586 33.2724087182192  C 1.88662400175403 33.7088192429552  1.66830241028452 34.2874375990541  1.66830241028452 34.8675126294818  C 1.66830241028452 35.4469503648906  1.8870973981504 36.0260466922538  2.32422772484976 36.4638911307824  C 2.76207261858907 36.900870668928  3.34084620154611 37.1198042684607  3.92046397279784 37.1198042684607  C 4.48845930374754 37.1198042684607  5.05603128872039 36.9094969122199  5.49068492765251 36.4891780867113  C 5.49068492765251 36.4891780867113  5.51538238568897 36.4627758644994  5.51538238568897 36.4627758644994  C 5.51538238568897 36.4627758644994  14.8682262129276 27.1099934907089  14.8682262129276 27.1099934907089  C 14.8682262129276 27.1099934907089  16.4225450638229 25.5556537001202  16.4225450638229 25.5556537001202  C 16.5901468256357 25.388136152292  16.8528034155728 25.3382905775985  17.0758801155443 25.4509552327275  C 18.6879574692143 26.2683998971635  21.1074281385635 26.540069659511  22.8545355608404 26.265805196015  C 24.5527360529446 25.9994386386464  26.1864350057633 25.2160209761131  27.502440115601 23.9163260666523  C 27.502440115601 23.9163260666523  27.5138203837959 23.9049457984574  27.5138203837959 23.9049457984574  C 27.5138203837959 23.9049457984574  27.5197381232572 23.8981176375406  27.5197381232572 23.8981176375406  C 27.5197381232572 23.8981176375406  27.5413606328274 23.8753571011509  27.5413606328274 23.8753571011509  C 27.5413606328274 23.8753571011509  27.920965410842 23.4957568752435  27.920965410842 23.4957568752435  C 27.920965410842 23.4957568752435  36.9835168048592 13.8309993115216  36.9836397117557 13.8308172272304  C 37.2248467721992 13.5888272043351  37.3457803301985 13.2683588519682  37.3457803301985 12.9470028386821  C 37.3457803301985 12.6264206836332  37.224557713387 12.306111655021  36.982194417695 12.0638257451526  C 36.7401452174051 11.8226095804947  36.419558510249 11.7017056111925  36.0981933927483 11.7017056111925  C 35.7873641275424 11.7017056111925  35.4773792782366 11.8148254770493  35.2382798434628 12.0405872374987  C 35.2382798434628 12.0405872374987  35.2154055043912 12.0653962221635  35.2154055043912 12.0653962221635  C 35.2154055043912 12.0653962221635  30.9052495564353 16.375718322035  30.9052495564353 16.375718322035  C 30.9052495564353 16.375718322035  25.7733062337003 22.1099360960839  25.7733062337003 22.1099360960839  C 25.3099859267907 22.5732723353688  24.6997736701293 22.8049518352796  24.0903443759197 22.8049518352796  C 23.4810948899476 22.8049518352796  22.8708814952594 22.5732723353688  22.4073806972963 22.1097540117927  C 21.9443601466509 21.646440533044  21.712487864997 21.0374823819377  21.712487864997 20.4293208496049  C 21.712487864997 19.8200668115256  21.9442395158081 18.6076165204085  22.4076811363766 18.1441664784415  C 22.4076811363766 18.1441664784415  22.7775316589161 17.7743077621089  22.7775316589161 17.7743077621089  C 22.7775316589161 17.7743077621089  22.7870910841997 17.765203547553  22.7870910841997 17.765203547553  C 22.7870910841997 17.765203547553  22.7966505094834 17.756099332997  22.7966505094834 17.756099332997  C 22.7966505094834 17.756099332997  28.6932235823835 11.8593678467637  28.6932235823835 11.8593678467637  C 28.6932235823835 11.8593678467637  31.849563726761 8.70318702614081  31.849563726761 8.70318702614081  C 32.0907707872045 8.46119700324569  32.2117066212575 8.14043276390555  32.2117066212575 7.81907675061954  C 32.2117066212575 7.49781177947891  32.090779891419 7.1770475401389  31.849563726761 6.93505751724365  C 31.6073938956283 6.69372754990381  31.2866865576293 6.57280082006525  30.9654443470251 6.57280082006525  C 30.6540119276049 6.57280082006525  30.3440293543527 6.68569308055822  30.1063114841378 6.91086306706149  C 30.1063114841378 6.91086306706149  30.0828226105836 6.93612726245404  30.0828226105836 6.93612726245404  C 30.0828226105836 6.93612726245404  26.9265439196544 10.0922170409312  26.9265439196544 10.0922170409312  C 26.9265439196544 10.0922170409312  20.6407249331303 16.3782219810376  20.6407249331303 16.3782219810376  C 20.1774631207993 16.8413533754951  18.9657698451225 17.0732832413061  18.3576051263148 17.0732832413061  C 17.7480538356301 17.0732832413061  17.1381433836812 16.8415354597863  16.6748223939556 16.3782219810376  C 16.2115034526782 15.9148857417525  15.9799295616563 15.3048806059722  15.9799295616563 14.6954217230653  C 15.9799295616563 14.0861904455223  16.211680984862 13.4759804649145  16.6750022021931 13.0126442256295  C 16.6750022021931 13.0126442256295  17.0441903931236 12.6434683253886  17.0441903931236 12.6434683253886  C 17.0441903931236 12.6434683253886  17.0544326344989 12.6320880571938  17.0544326344989 12.6320880571938  C 17.0544326344989 12.6320880571938  17.0646748758743 12.6229838426379  17.0646748758743 12.6229838426379  C 17.0646748758743 12.6229838426379  22.4090362987133 7.88093988852652  22.4090362987133 7.88093988852652  C 22.4090362987133 7.88093988852652  26.7193706892744 3.57070883080056  26.7193706892744 3.57070883080056  C 26.9620230437786 3.32728489411283  27.0836189333869 3.0065206547727  27.0836189333869 2.68659855527915  Z M 19.8176254134284 16.2021202286289  C 19.8176254134284 16.2021202286289  17.4488035381018 13.8334802099881  17.4488035381018 13.8334802099881  C 17.220125014914 14.0731258976352  17.1056354199773 14.3842624300823  17.1056354199773 14.6956720889661  C 17.1056354199773 15.0162770045513  17.2266873327659 15.9386442593818  17.4688621712166 16.1807936060318  C 17.7110299539011 16.4229657132181  18.6335758789421 16.5442110905661  18.953979136175 16.5442110905661  C 19.2662536954416 16.5442110905661  19.5779865539422 16.4299531978897  19.8176254134284 16.2021202286289  Z M 24.9470395853597 21.3335286787588  C 24.9470395853597 21.3335286787588  22.5804468769671 18.9649341811907  22.5804468769671 18.9649341811907  C 22.3515862694883 19.2045798688379  22.2370966745515 19.5158302039669  22.2370966745515 19.8272626233871  C 22.2370966745515 20.1486869182824  22.3580347846582 21.0713500600858  22.5994196048908 21.313453885663  C 22.8415864771539 21.5556259928494  23.7640743628271 21.6768713701973  24.0845381630867 21.6768713701973  C 24.3961481146908 21.6768713701973  24.7073984498199 21.5623858721572  24.9470395853597 21.3335286787588  Z M 34.7284574846555 31.1190798914629  C 34.7284574846555 31.1190798914629  28.3135072777406 24.0958191389837  28.3135072777406 24.0958191389837  C 28.3135072777406 24.0958191389837  28.2984853237234 24.1094754608174  28.2984853237234 24.1094754608174  C 28.2984853237234 24.1094754608174  28.292567584262 24.1163036217343  28.292567584262 24.1163036217343  C 28.292567584262 24.1163036217343  28.2866498448007 24.1231317826512  28.2866498448007 24.1231317826512  C 26.7962899220034 25.5940314468352  24.3424890804069 26.480736423505  22.4167512784095 26.7829053046146  C 20.5719599584499 27.0725331301735  18.6592332170797 26.8250122969357  16.9315236895463 26.0406842129466  C 16.9315236895463 26.0406842129466  16.0682393048215 26.9039458371351  16.0682393048215 26.9039458371351  C 16.0682393048215 26.9039458371351  16.235181011079 27.0630419864991  16.235181011079 27.0630419864991  C 17.1002113565503 27.8869961643425  17.878816303664 28.6287392847463  18.4622906202016 29.2122283956325  C 18.9278378179916 29.6777724069474  19.5310061438511 30.5207736713869  20.1272452520121 30.5327457135277  C 20.7158363647355 30.5441259817226  21.2996106651427 30.3342738362096  21.7357690031355 29.8980226352284  C 21.7357690031355 29.8980226352284  23.7310409266195 27.3007075074803  23.7310409266195 27.3007075074803  C 23.9518864112087 27.0799303045003  24.3101190455534 27.0799303045003  24.5309645301427 27.3007075074803  C 24.5309645301427 27.3007075074803  31.5417274720904 34.3116548097727  31.5417274720904 34.3116548097727  C 31.5417274720904 34.3116548097727  31.5628947709328 34.3344153461624  31.5628947709328 34.3344153461624  C 31.5628947709328 34.3344153461624  31.5772339088583 34.3480716679961  31.5772339088583 34.3480716679961  C 31.5772339088583 34.3480716679961  31.5881589663254 34.359451936191  31.5881589663254 34.359451936191  C 31.5881589663254 34.359451936191  31.6291051712904 34.4022417446036  31.6291051712904 34.4022417446036  C 32.0680330113512 34.8368314264286  32.643014233735 35.0544904359231  33.2182367178045 35.0544904359231  C 33.7965273221793 35.0544904359231  34.3745197635275 34.8343960490347  34.8145924585686 34.3951859783228  C 35.2540050980544 33.954928922937  35.473890088008 33.377129946148  35.473890088008 32.7988302375587  C 35.473890088008 32.223079709045  35.2527487164457 31.6454400560107  34.8111009922864 31.2037490868323  C 34.8111009922864 31.2037490868323  34.7894784827162 31.1803057343511  34.7894784827162 31.1803057343511  C 34.7894784827162 31.1803057343511  34.7749117394268 31.1666494125173  34.7749117394268 31.1666494125173  C 34.7749117394268 31.1666494125173  34.7639866819598 31.1552691443225  34.7639866819598 31.1552691443225  C 34.7639866819598 31.1552691443225  34.7284574846555 31.1190798914629  34.7284574846555 31.1190798914629  Z M 4.55624541603943 13.7405226970106  C 5.95289383757018 16.771406764808  9.16494328534961 19.9228761543982  11.8513730371113 22.7421555153807  C 11.8513730371113 22.7421555153807  12.7448294716904 21.8487134199395  12.7448294716904 21.8487134199395  C 11.9604428931229 20.1209838631341  11.7129737263026 18.2081883849441  12.0024809210186 16.3634696710955  C 12.3052383895992 14.4341955645593  13.1945405710764 11.9770170593627  14.6700824742626 10.4853825465274  C 14.6700824742626 10.4853825465274  14.6862424550993 10.4694501710547  14.6862424550993 10.4694501710547  C 14.6862424550993 10.4694501710547  7.31864642418946 3.70417661619045  7.31864642418946 3.70417661619045  C 6.93470348793895 3.32022912783263  6.45536203946467 3.69734845527353  5.99414890301405 4.15988807578493  C 5.83792968544973 4.31602535541821  5.74234339880074 4.41699109484288  5.64628255496803 4.51807063694958  C 5.5110713124914 4.66032398938521  5.37682921365424 4.80155311768322  5.30148683088634 4.8769587747424  C 2.9966249534029 7.18182725278134  3.15616425041039 10.7025828629322  4.55624541603943 13.7405226970106  Z " fill-rule="nonzero" fill="#555555" stroke="none" transform="matrix(1 0 0 1 34 202 )" />
  </g>
</svg>