<?xml version="1.0" encoding="utf-8"?>
<svg version="1.1" xmlns:xlink="http://www.w3.org/1999/xlink" width="37px" height="37px" xmlns="http://www.w3.org/2000/svg">
  <g transform="matrix(1 0 0 1 -318 -205 )">
    <path d="M 24.3863636363636 0  L 12.6136363636364 0  C 10.3119075681818 0  8.40909090909091 1.90280909090909  8.40909090909091 4.20454545454545  L 8.40909090909091 6.72727272727273  C 8.40909090909091 7.19169  8.78557852272727 7.56818181818182  9.25 7.56818181818182  C 9.71442147727273 7.56818181818182  10.0909090909091 7.19169  10.0909090909091 6.72727272727273  L 10.0909090909091 4.20454545454545  C 10.0909090909091 2.83754681818182  11.2466368863636 1.68181818181818  12.6136363636364 2  L 24.3863636363636 2  C 25.7533631136364 1.68181818181818  26.9090909090909 2.83754681818182  26.9090909090909 4.20454545454545  L 26.9090909090909 8.40909090909091  L 24.3863636363636 8.40909090909091  L 24.3863636363636 5.88636363636364  C 24.3863636363636 4.96748545454545  23.6234328863636 4.20454545454545  22.7045454545455 4.20454545454545  L 14.2954545454545 4.20454545454545  C 13.3765671136364 4.20454545454545  12.6136363636364 4.96748545454545  12.6136363636364 5.88636363636364  L 12.6136363636364 8.40909090909091  L 3.36363636363636 8.40909090909091  C 1.51472719090909 8.40909090909091  0 9.92382045454545  0 11.7727272727273  L 0 33.6363636363636  C 0 35.4852704545455  1.51472719090909 37  3.36363636363636 37  L 33.6363636363636 37  C 35.4852729772727 37  37 35.4852704545455  37 33.6363636363636  L 37 11.7727272727273  C 37 9.92382045454545  35.4852729772727 8.40909090909091  33.6363636363636 8.40909090909091  L 28.5909090909091 8.40909090909091  L 28.5909090909091 4.20454545454545  C 28.5909090909091 1.90280909090909  26.6880924318182 0  24.3863636363636 0  Z M 14.2954545454545 8.40909090909091  L 14.2954545454545 5.88636363636364  L 22.7045454545455 5.88636363636364  L 22.7045454545455 8.40909090909091  L 14.2954545454545 8.40909090909091  Z M 2 11.7727272727273  C 1.68181818181818 10.8264522727273  2.41736371818182 10.0909090909091  3.36363636363636 10.0909090909091  C 13.4545454545455 10.0909090909091  23.5454545454545 10.0909090909091  33.6363636363636 10.0909090909091  C 34.5826361136364 10.0909090909091  35.3181818181818 10.8264522727273  35 11.7727272727273  L 35 33.6363636363636  C 35.3181818181818 34.5826386363636  34.5826361136364 35.3181818181818  33.6363636363636 35  L 3.36363636363636 35  C 2.41736371818182 35.3181818181818  1.68181818181818 34.5826386363636  2 33.6363636363636  L 2 11.7727272727273  Z " fill-rule="nonzero" fill="#555555" stroke="none" transform="matrix(1 0 0 1 318 205 )" />
  </g>
</svg>