<?xml version="1.0" encoding="utf-8"?>
<svg version="1.1" xmlns:xlink="http://www.w3.org/1999/xlink" width="19px" height="19px" xmlns="http://www.w3.org/2000/svg">
  <g transform="matrix(1 0 0 1 -327 -219 )">
    <path d="M 11.2272727272722 0  L 7.77272727272779 0  C 6.82901022727353 0  6.04545281818286 0.783551363636373  6.04545454545559 1.72727272727273  C 6.04545454545559 3.16666954545455  6.04545454545559 4.60605772727272  6.04545454545559 6.04545454545455  C 4.60606031818329 6.04545454545455  3.16666695454736 6.04545454545455  1.72727272727506 6.04545454545455  C 0.783555681820803 6.04545454545455  0 6.82900590909092  0 7.77272727272727  L 0 11.2272727272727  C 0 12.1709940909091  0.783555681820803 12.9545454545455  1.72727272727506 12.9545454545455  C 3.16666695454736 12.9545454545455  4.60606031818329 12.9545454545455  6.04545454545559 12.9545454545455  C 6.04545454545559 14.3939422727273  6.04545454545559 15.8333304545454  6.04545454545559 17.2727272727273  C 6.04545281818286 18.2164486363636  6.82901022727353 19  7.77272727272779 19  L 11.2272727272722 19  C 12.1709897727265 19  12.9545471818171 18.2164486363636  12.9545454545444 17.2727272727273  C 12.9545454545444 15.8333304545454  12.9545454545444 14.3939422727273  12.9545454545444 12.9545454545455  C 14.3939396818167 12.9545454545455  15.8333330454526 12.9545454545455  17.2727272727249 12.9545454545455  C 18.2164443181792 12.9545454545455  19.0000017272699 12.1709940909091  18.9999999999971 11.2272727272727  L 18.9999999999971 7.77272727272727  C 19.0000017272699 6.82900590909092  18.2164443181792 6.04545454545455  17.2727272727249 6.04545454545455  C 15.8333330454526 6.04545454545455  14.3939396818167 6.04545454545455  12.9545454545444 6.04545454545455  C 12.9545454545444 4.60605772727272  12.9545454545444 3.16666954545455  12.9545454545444 1.72727272727273  C 12.9545471818171 0.783551363636373  12.1709897727265 0  11.2272727272722 0  Z M 7.77272727272779 6.90909090909091  C 7.77272727272779 5.18181818181818  7.77272727272779 3.45454545454545  7.77272727272779 1.72727272727273  L 11.2272727272722 1.72727272727273  C 11.2272727272722 3.45454545454545  11.2272727272722 5.18181818181818  11.2272727272722 6.90909090909091  C 11.2273202272722 7.38604272727272  11.6139555454539 7.77267545454546  12.0909090909083 7.77272727272727  C 13.8181818181805 7.77272727272727  15.5454545454527 7.77272727272727  17.2727272727249 7.77272727272727  L 17.2727272727249 11.2272727272727  C 15.5454545454527 11.2272727272727  13.8181818181805 11.2272727272727  12.0909090909083 11.2272727272727  C 11.6139555454539 11.2273245454545  11.2273202272722 11.6139572727273  11.2272727272722 12.0909090909091  C 11.2272727272722 13.8181818181818  11.2272727272722 15.5454545454545  11.2272727272722 17.2727272727273  L 7.77272727272779 17.2727272727273  C 7.77272727272779 15.5454545454545  7.77272727272779 13.8181818181818  7.77272727272779 12.0909090909091  C 7.77267977272779 11.6139572727273  7.38604445454609 11.2273245454545  6.90909090909169 11.2272727272727  C 5.18181818181948 11.2272727272727  3.45454545454727 11.2272727272727  1.72727272727506 11.2272727272727  L 1.72727272727506 7.77272727272727  C 3.45454545454727 7.77272727272727  5.18181818181948 7.77272727272727  6.90909090909169 7.77272727272727  C 7.38604445454609 7.77267545454546  7.77267977272779 7.38604272727272  7.77272727272779 6.90909090909091  Z " fill-rule="nonzero" fill="#555555" stroke="none" transform="matrix(1 0 0 1 327 219 )" />
  </g>
</svg>