<?xml version="1.0" encoding="utf-8"?>
<svg version="1.1" xmlns:xlink="http://www.w3.org/1999/xlink" width="37px" height="42px" xmlns="http://www.w3.org/2000/svg">
  <g transform="matrix(1 0 0 1 -175 -200 )">
    <path d="M 28.7777745971057 22.1360655737705  L 28.7777745971057 19.0239344262295  C 29.9738074608424 18.3359316148979  30.9334627005161 17.2988420178196  31.5294779966766 16.0501967213115  C 31.6433749531433 18.623793558072  33.7511672384363 20.6523930623434  36.3148108011096 20.655737704918  C 36.6932280878727 20.655737704918  36.9999959105645 20.3474747457851  37 19.9672131147541  L 37 8.26229508196721  C 36.9973495007563 5.65599977622041  34.9333339609199 3.52397245894922  32.3407371662712 3.44950819672131  C 30.9518652373587 1.30609406274863  28.5823520600391 0.0094506266054504  26.0370341592862 0  L 24.6666639403764 0  C 20.5061085763401 0.00493224635862204  17.1345360603588 3.39293725805653  17.1296277363725 7.57377049180328  L 17.1296277363725 9.33363934426229  C 16.2815941890082 9.82325386956299  15.75873790344 10.7310777336695  15.75873790344 11.7138851971827  C 15.75873790344 13.2299883201034  16.9818212125122 14.4590327381663  18.4905709348366 14.4590327381663  C 18.4937132820016 14.4590327381663  18.496855626827 14.459027289917  18.4999979552823 14.4590163934426  L 18.6527942346907 14.4590163934426  C 19.0388362238513 16.3832625016462  20.2316698833843 18.0468655667544  21.9259235025568 19.0239344262295  L 21.9170160961339 22.0913114754098  L 19.7100348585796 22.2923606557377  C 19.583558931832 22.130023795683  19.3903454482404 22.0344670060633  19.1851830647372 22.0327868852459  L 15.0740724080078 22.0327868852459  C 14.6956551212447 22.0327868852459  14.3888872985529 22.3410498443788  14.3888872985529 22.7213114754098  L 14.3888872985529 23.906262295082  C 14.3265354535925 23.9682295081967  14.2662391639604 24.0315737704918  14.2073132445473 24.0983606557377  L 13.0185170796431 24.0983606557377  L 13.0185170796431 23.4098360655738  C 13.0185170796431 23.0295744345427  12.7117492569513 22.7213114754098  12.3333319701882 22.7213114754098  L 7.53703620400389 22.7213114754098  C 7.22275591912731 22.7213197775998  6.94877675697544 22.9361786131075  6.87240664783263 23.2425245901639  L 6.65931407879216 24.0983606557377  L 5.48148087563919 24.0983606557377  L 5.48148087563919 22.7213114754098  C 5.48148087563919 22.3410498443788  5.17471305294738 22.0327868852459  4.79629576618429 22.0327868852459  L 0.685185109454899 22.0327868852459  C 0.306767822691815 22.0327868852459  0 22.3410498443788  0 22.7213114754098  L 0 29.6065573770492  C 0 29.9868190080802  0.306767822691815 30.2950819672131  0.685185109454899 30.2950819672131  L 4.79629576618429 30.2950819672131  C 5.17471305294738 30.2950819672131  5.48148087563919 29.9868190080802  5.48148087563919 29.6065573770492  L 5.48148087563919 28.2295081967213  L 6.93612886301194 28.2295081967213  L 7.53703620400389 29.7387540983607  L 7.53703620400389 38.2131147540984  C 7.53703620400389 38.22  7.53703620400389 38.2255081967213  7.53703620400389 38.232393442623  C 7.52336445276237 39.0452842924289  7.83372291863571 39.8299202538688  8.39899907169815 40.4115737704918  C 8.97046617817618 40.9976624478077  9.75593725082467 41.3228876134389  10.5724062388891 41.3114754098361  L 10.6203691965509 41.3114754098361  C 11.9281909275043 41.3074921686052  13.0906283291593 40.473251280031  13.5187022095452 39.2314426229508  L 16.6020352020922 34.7250491803279  C 16.6061463127489 34.7532786885246  16.6157389042813 34.7808196721311  16.6205352000475 34.8090491803279  C 16.6445166788784 34.952262295082  16.6732944534755 35.0947868852459  16.7082388940577 35.2366229508197  C 16.7205722260279 35.2868852459016  16.7329055579981 35.3364590163934  16.7466092601872 35.3867213114754  C 16.7603129623763 35.4369836065574  16.7712759241276 35.4727868852459  16.7842944412072 35.5154754098361  C 16.8130722158043 35.6125573770492  16.8459611010581 35.708262295082  16.8802203565309 35.8039672131148  C 16.9048870204713 35.8728196721312  16.9288684993022 35.9416721311475  16.9562759036804 36.0105245901639  C 16.96929442076 36.0435737704918  16.9809425676208 36.0793770491803  16.9946462698099 36.1096721311475  C 17.0145166379841 36.157868852459  17.038498116815 36.2033114754098  17.0631647807554 36.2473770491803  C 17.0878314446957 36.2914426229508  17.106331442651 36.3423934426229  17.1316832917008 36.3892131147541  C 17.1604610662979 36.447737704918  17.1858129153478 36.5076393442623  17.2159610601638 36.5654754098361  C 17.2378869836664 36.6074754098361  17.2646092029351 36.6480983606557  17.2844795711093 36.6894098360656  C 17.3228499372388 36.758262295082  17.3612203033682 36.8271147540984  17.4016462248261 36.8918360655738  C 17.4290536292043 36.9372786885246  17.4550906633636 36.9834098360656  17.4838684379607 37.0295409836066  C 17.531146210513 37.1025245901639  17.5832202788316 37.1720655737705  17.6339239769313 37.2436721311475  C 17.6551647153244 37.2732786885246  17.6750350834986 37.304262295082  17.6969610070011 37.333868852459  C 17.7188869305037 37.3634754098361  17.7353313731306 37.3951475409836  17.7579424817426 37.4240655737705  L 17.8148128458274 41.3218032786885  L 18.4999979552823 41.3114754098361  L 19.1851830647372 41.3018360655738  L 19.1851830647372 41.2866885245902  L 19.1365349219659 37.8688524590164  L 31.5185150349253 37.8688524590164  L 31.5185150349253 41.3114754098361  L 32.8888852538351 41.3114754098361  L 32.8888852538351 37.4226885245902  C 32.9286259901835 37.3710491803279  32.9628852456563 37.3159672131148  33.0005704266763 37.2629508196721  C 33.0382556076963 37.2099344262295  33.0862185653582 37.1445245901639  33.126644486816 37.0832459016393  C 33.1951629977615 36.9827213114754  33.2554592873935 36.8766885245902  33.3157555770255 36.7761639344262  C 33.3479592771699 36.7217704918033  33.384274087971 36.6673770491803  33.4116814923492 36.611606557377  C 33.4802000032947 36.4883606557377  33.5384407375984 36.3630491803279  33.5959962867926 36.2363606557377  C 33.6138110996384 36.1978032786885  33.6336814678126 36.1599344262295  33.6501259104395 36.1213770491803  C 33.7971570127881 35.7759548195597  33.9118499325087 35.4175213659471  33.992718465167 35.0507213114754  L 33.992718465167 35.0417704918033  C 34.0331443866248 34.8586229508197  34.0612369761125 34.6747868852459  34.0865888251623 34.4909508196721  L 34.0865888251623 34.4661639344262  C 34.2337662730687 33.2542427701362  34.0100593066505 32.0260234555153  33.4452555627125 30.9450491803279  L 33.4151074178965 30.8879016393443  C 33.2797592083197 30.6348678282916  33.1265720059752 30.3918871028801  32.9567185796712 30.1608196721312  C 32.9204037688701 30.1078032786885  32.8834037729595 30.0547868852459  32.8436630366111 30.0038360655738  L 31.858366849215 24.0515409836066  L 33.3287740941052 24.2973442622951  C 34.6550638430035 24.5158037899293  35.6288730682267 25.6671654445937  35 27.0177049180328  L 35 41.3114754098361  L 37 41.3114754098361  L 37 27.0177049180328  C 37.0028141299558 24.9956825074599  35.5487095663391 23.2687666936137  33.5637925866482 22.9368196721312  L 31.1656447035561 22.5381639344262  C 31.1581076673521 22.5381639344262  31.151941001367 22.5319672131148  31.1450891502724 22.5312786885246  L 28.8928856954942 22.1594754098361  L 28.7777745971057 22.1360655737705  Z M 4.11111065672939 23.4098360655738  L 4.11111065672939 28.9180327868852  L 1.3703702189098 28.9180327868852  L 1.3703702189098 23.4098360655738  L 4.11111065672939 23.4098360655738  Z M 6.38798077544802 26.8524590163934  L 5.48148087563919 26.8524590163934  L 5.48148087563919 25.4754098360656  L 6.31672152406471 25.4754098360656  L 6.18722153837774 25.9966229508197  C 6.15249648544436 26.1372681113325  6.16231721651386 26.2852970470484  6.21531412786539 26.4200655737705  L 6.38798077544802 26.8524590163934  Z M 13.703702189098 36.5379344262295  L 13.703702189098 36.4229508196721  L 13.0185170796431 29.6065573770492  L 13.0185170796431 29.3221967213115  L 13.5392577628288 28.2295081967213  L 14.3888872985529 28.2295081967213  L 14.3888872985529 29.6065573770492  C 14.3888872985529 29.9868190080802  14.6956551212447 30.2950819672131  15.0740724080078 30.2950819672131  L 17.6373499024785 30.2950819672131  C 17.607886942772 30.3377704918033  17.5825350937222 30.3825245901639  17.5537573191251 30.4252131147541  C 17.5249795445279 30.4679016393443  17.4948313997119 30.5160983606557  17.4667388102243 30.5629180327869  C 17.3899980779653 30.6861639344262  17.318738826582 30.8100983606557  17.2515906858554 30.9367868852459  C 17.2303499474623 30.9774098360656  17.2084240239598 31.0173442622951  17.1878684706761 31.0579672131148  C 17.1193499597306 31.1956721311475  17.0576832998797 31.3333770491803  17.0001277506855 31.4710819672131  C 16.9857388633869 31.5048196721311  16.9706647909789 31.5399344262295  16.9576462738993 31.5709180327869  C 16.901461094924 31.7134426229508  16.8521277670432 31.8580327868853  16.8075907349287 32.0033114754098  L 13.703702189098 36.5379344262295  Z M 22.6111086120117 26.8524590163934  L 22.6111086120117 23.2783278688525  C 23.0323483162099 23.0339536084932  23.293113771644 22.5835130646995  23.2962937214666 22.0947540983607  L 23.2962937214666 19.6387868852459  C 24.6320161274017 20.0767105394345  26.0716819722608 20.0767105394345  27.4074043781959 19.6387868852459  L 27.4074043781959 22.1360655737705  C 27.4056990548754 22.6297464062263  27.6671187278568 23.0865709068993  28.0925894876509 23.3334098360656  L 28.0925894876509 26.8524590163934  C 28.0925894876509 28.3735055405176  26.8655181968836 29.6065573770492  25.3518490498313 29.6065573770492  C 23.8381799027789 29.6065573770492  22.6111086120117 28.3735055405176  22.6111086120117 26.8524590163934  Z M 32.2037001443802 13.0819672131148  L 32.2037001443802 10.327868852459  C 32.9605347179064 10.327868852459  33.57407036329 10.9443947707248  33.57407036329 11.7049180327869  C 33.57407036329 12.465441294849  32.9605347179064 13.0819672131148  32.2037001443802 13.0819672131148  Z M 33.0944407866716 4.95255737704918  C 34.5860112719405 5.35440085878731  35.6247754612829 6.71052955662987  35 8.26229508196721  L 35 19.2098360655738  C 34.0354540716172 18.8806648318389  32.8906751337108 17.4714757867723  32.8888852538351 15.8360655737705  L 32.8888852538351 14.3612459016393  C 34.0968944089447 14.0536176068989  34.9429065306079 12.9611647804244  34.9429065306079 11.7088946031285  C 34.9429065306079 10.7282911862906  34.4206990481955 9.82266274584503  33.57407036329 9.33501639344262  L 33.57407036329 7.57377049180328  C 33.5702051941142 6.67835938170283  33.4077967421198 5.79078450086218  33.0944407866716 4.95255737704918  Z M 18.5020535106106 8.89711475409836  L 18.4999979552823 7.57377049180328  C 18.5041508322179 4.15314586550329  21.2626300213882 1.3812222977098  24.6666639403764 1.37704918032787  L 26.0370341592862 1.37704918032787  C 28.2179194049981 1.3819020317534  30.2353774975347 2.53953192776033  31.3479039426711 4.42445901639344  C 31.356811349094 4.4444262295082  31.3670891257358 4.46370491803279  31.3773669023776 4.48229508196721  C 31.9179184605876 5.42210349158985  32.2029010941487 6.4882796528551  32.2037001443802 7.57377049180328  L 32.2037001443802 8.95081967213115  L 31.9419594325685 8.95081967213115  L 29.3944411956152 3.82337704918033  C 29.2784783291027 3.58983280266869  29.0410723557654 3.442254815763  28.7813369198215 3.442254815763  C 28.6255991739156 3.442254815763  28.4745077401306 3.49556819139314  28.3529598292437 3.59340983606557  C 28.2995153907062 3.6367868852459  22.9365715390027 7.91803278688525  19.0344423406571 8.79590163934426  C 18.8501275462137 8.83790163934426  18.6726646028649 8.87232786885246  18.5020535106106 8.89711475409836  Z M 18.4999979552823 13.0819672131148  C 17.7431633817561 13.0819672131148  17.1296277363725 12.465441294849  17.1296277363725 11.7049180327869  C 17.1296277363725 10.9443947707248  17.7431633817561 10.327868852459  18.4999979552823 10.327868852459  L 18.4999979552823 13.0819672131148  Z M 22.9160159857191 18.0159344262295  C 21.0454774762184 17.0917572379467  19.8632371796638 15.1765210641689  19.8703681741921 13.0819672131148  L 19.8703681741921 9.99944262295082  C 23.1592566995756 9.06786885245902  27.0065710891648 6.33924590163934  28.5365894385776 5.18596721311475  L 30.8333299254704 9.80183606557377  L 30.8333299254704 13.0819672131148  C 30.840040833994 15.1767841178185  29.6572688592197 17.0920198650445  27.7863117437245 18.0159344262295  C 26.2490841783115 18.7677705278043  24.4532435511321 18.7677705278043  22.9160159857191 18.0159344262295  Z M 15.7592575174627 28.9180327868852  L 15.7592575174627 23.4098360655738  L 18.4999979552823 23.4098360655738  L 18.4999979552823 28.9180327868852  L 15.7592575174627 28.9180327868852  Z M 13.0185170796431 25.4754098360656  L 14.3888872985529 25.4754098360656  L 14.3888872985529 26.8524590163934  L 13.0185170796431 26.8524590163934  L 13.0185170796431 25.4754098360656  Z M 12.3333319701882 36.4918032786885  L 12.3333319701882 38.2131147540984  C 12.3333319701882 39.163768831676  11.5664124134586 39.9344262295082  10.6203691965509 39.9344262295082  C 9.67432597964322 39.9344262295082  8.90740642291368 39.163768831676  8.90740642291368 38.2131147540984  L 8.90740642291368 29.6065573770492  C 8.90737408688694 29.5188648135161  8.89086908897058 29.4319664487347  8.85875828014239 29.3504262295082  L 7.56992508925772 26.1143606557377  L 8.07216577448816 24.0983606557377  L 11.6481468607333 24.0983606557377  L 11.6481468607333 29.6754098360656  L 12.3333319701882 36.4918032786885  Z M 30.4366077470961 23.8105573770492  L 31.5274224413483 30.4059344262295  C 31.5477673888777 30.5285462861208  31.6005411887858 30.6434071750266  31.6802187207567 30.7384918032787  C 31.8048661719526 30.8930668765895  31.9193084583275 31.0556769606563  32.0228112754841 31.2252786885246  C 32.0831075651162 31.319606557377  32.1475149654049 31.411868852459  32.2009594039424 31.5096393442623  C 32.3614921435775 31.821401399322  32.4907166854088 32.1484590977329  32.5867186205655 32.4859672131147  C 32.617551950491 32.5954426229508  32.6511260208543 32.7042295081967  32.6737371294663 32.8157704918033  C 32.700459348735 32.9534754098361  32.7155334211431 33.0911803278688  32.7306074935511 33.2288852459016  C 32.7408852701929 33.3245901639344  32.7504778617253 33.4196065573771  32.7552741574914 33.5153114754098  C 32.7631697172331 33.6959393167771  32.7604241805605 33.8768783537433  32.747051936178 34.0571803278688  C 32.7402000850834 34.1563278688525  32.7347186042078 34.2554754098361  32.7210149020187 34.3539344262295  C 32.6992564753413 34.5086902526802  32.6695251857735 34.6622079317797  32.6319408377896 34.813868852459  C 32.6045334334114 34.9295409836066  32.5778112141426 35.0452131147541  32.5408112182321 35.158131147541  C 32.4976445563364 35.2958360655738  32.4435149326895 35.4252786885246  32.3873297537142 35.5567868852459  C 32.3366260556145 35.6765901639344  32.2852371724054 35.7963934426229  32.2235705125544 35.9127540983607  C 32.1619038527035 36.0291147540984  32.0865334906635 36.1509836065574  32.0097927584045 36.2666557377049  C 31.9604594305238 36.3430819672131  31.9077001770957 36.418131147541  31.8535705534488 36  L 18.7953127374573 36  C 18.7005281291976 36.3687924024278  18.6120251359871 36.2410210991413  18.5301461000983 36.1089836065574  C 18.5123312872525 36.078  18.4931461041877 36.0470163934426  18.4753312913419 36.0153442622951  C 18.3621962111381 35.8098508068291  18.2652874821581 35.5957506339961  18.1854979900425 35.3750163934426  L 18.1765905836196 35.3529836065574  C 18.162201696321 35.3109836065574  18.1505535494603 35.2682950819672  18.1368498472712 35.225606557377  C 18.0797518403665 35.04506065088  18.0339829242626 34.8610927054715  17.9998128253802 34.6747868852459  C 17.9957017147235 34.654131147541  17.9909054189573 34.6334754098361  17.98747949341 34.612131147541  C 17.9778869018776 34.5570491803279  17.9676091252358 34.5019672131148  17.9593869039224 34.4461967213115  C 17.9333523217559 34.2570051653049  17.918936153323 34.0663821355021  17.9162202420267 33.8754098360656  C 17.9162202420267 33.7797049180328  17.9162202420267 33.6833114754098  17.9223869080118 33.5869180327869  C 17.9296117682106 33.4292731098088  17.9447048215 33.272091833562  17.9676091252358 33.1159672131148  C 17.9772017167682 33.0471147540984  17.9813128274249 32.9837704918033  17.9929609742856 32.9169836065574  C 18.0335404558445 32.7050694568592  18.088483245315 32.4961894606529  18.1574054005548 32.2918032786885  C 18.1786461389479 32.2298360655738  18.1978313220127 32.167868852459  18.2211276157341 32.1065901639344  C 18.3017087487327 31.8971919664202  18.396959790078 31.6937969976557  18.5061646212674 31.4979344262295  C 18.5356275809739 31.4442295081967  18.5685164662278 31.3932786885246  18.6000349812627 31.3409508196721  C 18.7252026558458 31.1298080670184  18.8663081556208 30.9286274198368  19.0221090086869 30.7391803278689  C 19.1017178649435 30.6436841196817  19.1540520718293 30.5282732666638  19.1735349178764 30.4052459016393  L 19.1940904711601 30.2950819672131  C 19.5690246321855 30.2901836547553  19.8703998601275 29.9833507451768  19.8703681741921 29.6065573770492  L 19.8703681741921 26.1728852459016  L 20.2862755356312 23.6356721311475  L 21.2407383931019 23.5730163934426  L 21.2407383931019 26.8524590163934  C 21.2407383931019 29.1340288025797  23.0813453292528 30.9836065573771  25.3518490498313 30.9836065573771  C 27.6223527704098 30.9836065573771  29.4629597065606 29.1340288025797  29.4629597065606 26.8524590163934  L 29.4629597065606 23.6480655737705  L 30.4366077470961 23.8105573770492  Z " fill-rule="nonzero" fill="#555555" stroke="none" transform="matrix(1 0 0 1 175 200 )" />
  </g>
</svg>