<?xml version="1.0" encoding="utf-8"?>
<svg version="1.1" xmlns:xlink="http://www.w3.org/1999/xlink" width="39px" height="31px" xmlns="http://www.w3.org/2000/svg">
  <g transform="matrix(1 0 0 1 -249 -211 )">
    <path d="M 35.83125 13.0526315789474  C 38.43125 11.5842105263158  39.4875 8.32105263157895  38.10625 5.62894736842105  C 36.80625 3.18157894736842  33.9625 2.12105263157895  31.44375 3.1  L 31.44375 1.06052631578947  C 31.44375 0.571052631578945  31.11875 0.244736842105261  30.63125 0.244736842105261  L 3.00625 0.244736842105261  C 2.51875 0.244736842105261  2.19375 0.571052631578945  2.19375 1.06052631578947  L 2.19375 11.5842105263158  C 2.19375 16.6421052631579  4.79375 21.3736842105263  9.1 24.0657894736842  L 9.1 25.1263157894737  L 1.1375 25.1263157894737  C 0.65 25.1263157894737  0.325 25.4526315789474  0.325 25.9421052631579  C 0.325 28.3078947368421  2.275 30.2657894736842  4.63125 30  L 29.00625 30  C 31.3625 30.2657894736842  33.3125 28.3078947368421  33.3125 25.9421052631579  C 33.3125 25.4526315789474  32.9875 25.1263157894737  32.5 25.1263157894737  L 24.61875 25.1263157894737  L 24.61875 24.0657894736842  C 27.70625 22.1078947368421  29.9 19.0894736842105  30.875 15.6631578947368  L 35.83125 13.0526315789474  Z M 31.60625 26.6763157894737  C 31.2 27.7368421052632  30.14375 28.5526315789474  29.00625 28  L 4.63125 28  C 3.4125 28.5526315789474  2.4375 27.7368421052632  2.1125 26.6763157894737  L 31.60625 26.6763157894737  Z M 29.7375 11.5842105263158  C 29.81875 16.1526315789474  27.3 20.4763157894737  23.31875 22.8421052631579  C 23.075 23.0052631578947  22.9125 23.25  22.9125 23.5763157894737  L 22.9125 25  L 10.64375 25  L 10.64375 23.5763157894737  C 10.64375 23.25  10.48125 23.0052631578947  10.2375 22.8421052631579  C 6.25625 20.4763157894737  3.7375 16.1526315789474  3.7375 11.5842105263158  L 3.7375 2  L 29.7375 2  L 29.7375 11.5842105263158  Z M 36.725 6.36315789473684  C 37.61875 8.23947368421053  36.8875 10.6052631578947  35.1 11.5842105263158  L 31.3625 13.6236842105263  C 31.44375 12.9710526315789  31.525 12.3184210526316  31.525 11.6657894736842  L 31.525 4.89473684210526  L 31.60625 4.81315789473684  C 33.475 3.83421052631579  35.75 4.56842105263158  36.725 6.36315789473684  Z " fill-rule="nonzero" fill="#555555" stroke="none" transform="matrix(1 0 0 1 249 211 )" />
  </g>
</svg>