<?xml version="1.0" encoding="utf-8"?>
<svg version="1.1" xmlns:xlink="http://www.w3.org/1999/xlink" width="13px" height="14px" xmlns="http://www.w3.org/2000/svg">
  <g transform="matrix(1 0 0 1 -260 -215 )">
    <path d="M 10.725 10.1294117647059  C 12.91875 6.75294117647059  12.59375 2.71764705882353  10.15625 1.07058823529412  C 7.55625 -0.658823529411765  3.81875 0.823529411764706  1.70625 4.11764705882353  C -0.406249999999999 7.41176470588235  -0.243749999999999 11.4470588235294  2.275 13.1764705882353  C 4.79375 14.8235294117647  8.53125 13.4235294117647  10.725 10.1294117647059  Z M 5.93125 6.34117647058823  C 3.98125 6.91764705882353  2.4375 8.23529411764706  2.1125 10.4588235294118  C 1.4625 8.72941176470588  2.03125 6.67058823529412  3.00625 5.10588235294118  C 4.63125 2.55294117647059  7.475 1.31764705882353  9.18125 2.47058823529412  C 9.34375 2.55294117647059  9.50625 2.71764705882353  9.5875 2.88235294117647  C 9.01875 4.61176470588235  7.8 5.92941176470588  5.93125 6.34117647058823  Z M 10.31875 3.87058823529412  C 10.8875 5.27058823529412  10.5625 7.32941176470588  9.34375 9.22352941176471  C 7.6375 11.7764705882353  4.875 13.0117647058823  3.16875 11.8588235294118  C 3.00625 11.7764705882353  2.84375 11.6117647058824  2.7625 11.4470588235294  C 3.4125 9.47058823529412  4.63125 8.48235294117647  6.41875 7.98823529411765  C 8.69375 7.41176470588235  10.075 5.68235294117647  10.31875 3.87058823529412  Z " fill-rule="nonzero" fill="#555555" stroke="none" transform="matrix(1 0 0 1 260 215 )" />
  </g>
</svg>