<?xml version="1.0" encoding="utf-8"?>
<svg version="1.1" xmlns:xlink="http://www.w3.org/1999/xlink" width="8px" height="8px" xmlns="http://www.w3.org/2000/svg">
  <g transform="matrix(1 0 0 1 -190 -277 )">
    <path d="M 194 277  C 196.24 277  198 278.76  198 281  C 198 283.24  196.24 285  194 285  C 191.76 285  190 283.24  190 281  C 190 278.76  191.76 277  194 277  Z " fill-rule="nonzero" fill="#555555" stroke="none" />
    <path d="M 194 277.5  C 195.96 277.5  197.5 279.04  197.5 281  C 197.5 282.96  195.96 284.5  194 284.5  C 192.04 284.5  190.5 282.96  190.5 281  C 190.5 279.04  192.04 277.5  194 277.5  Z " stroke-width="1" stroke="#797979" fill="none" />
  </g>
</svg>