<?xml version="1.0" encoding="utf-8"?>
<svg version="1.1" xmlns:xlink="http://www.w3.org/1999/xlink" width="17px" height="17px" xmlns="http://www.w3.org/2000/svg">
  <g transform="matrix(1 0 0 1 -348 -270 )">
    <path d="M 14.01171875 9.00911458333333  C 14.14453125 8.87630208333333  14.2109375 8.71028645833333  14.2109375 8.51106770833333  C 14.2109375 8.31184895833333  14.14453125 8.14583333333333  14.01171875 8.01302083333333  L 13.0045572916667 7.005859375  C 12.8717447916667 6.873046875  12.7057291666667 6.806640625  12.5065104166667 6.806640625  C 12.3072916666667 6.806640625  12.1412760416667 6.873046875  12.0084635416667 7.005859375  L 9.91666666666667 9.09765625  L 9.91666666666667 3.54166666666667  C 9.91666666666667 3.34982638888889  9.84657118055556 3.18381076388889  9.70638020833333 3.04361979166667  C 9.56618923611111 2.90342881944444  9.40017361111111 2.83333333333333  9.20833333333333 2.83333333333333  L 7.79166666666667 2.83333333333333  C 7.59982638888889 2.83333333333333  7.43381076388889 2.90342881944444  7.29361979166667 3.04361979166667  C 7.15342881944444 3.18381076388889  7.08333333333333 3.34982638888889  7.08333333333333 3.54166666666667  L 7.08333333333333 9.09765625  L 4.99153645833333 7.005859375  C 4.85134548611111 6.86566840277778  4.68532986111111 6.79557291666667  4.49348958333333 6.79557291666667  C 4.30164930555556 6.79557291666667  4.13563368055556 6.86566840277778  3.99544270833333 7.005859375  L 2.98828125 8.01302083333333  C 2.85546875 8.14583333333333  2.7890625 8.31184895833333  2.7890625 8.51106770833333  C 2.7890625 8.71028645833333  2.85546875 8.87630208333333  2.98828125 9.00911458333333  L 6.99479166666667 13.015625  L 8.001953125 14.0227864583333  C 8.134765625 14.1555989583333  8.30078125 14.2220052083333  8.5 14.2220052083333  C 8.69921875 14.2220052083333  8.865234375 14.1555989583333  8.998046875 14.0227864583333  L 10.0052083333333 13.015625  L 14.01171875 9.00911458333333  Z M 15.8600260416667 4.2333984375  C 16.6200086805556 5.53569878472222  17 6.95789930555555  17 8.5  C 17 10.0421006944444  16.6200086805556 11.4643012152778  15.8600260416667 12.7666015625  C 15.1000434027778 14.0689019097222  14.0689019097222 15.1000434027778  12.7666015625 15.8600260416667  C 11.4643012152778 16.6200086805556  10.0421006944444 17  8.5 17  C 6.95789930555556 17  5.53569878472222 16.6200086805556  4.2333984375 15.8600260416667  C 2.93109809027778 15.1000434027778  1.89995659722222 14.0689019097222  1.13997395833333 12.7666015625  C 0.379991319444444 11.4643012152778  0 10.0421006944444  0 8.5  C 0 6.95789930555555  0.379991319444444 5.53569878472222  1.13997395833333 4.2333984375  C 1.89995659722222 2.93109809027778  2.93109809027778 1.89995659722222  4.2333984375 1.13997395833333  C 5.53569878472222 0.379991319444443  6.95789930555556 0  8.5 0  C 10.0421006944444 0  11.4643012152778 0.379991319444443  12.7666015625 1.13997395833333  C 14.0689019097222 1.89995659722222  15.1000434027778 2.93109809027778  15.8600260416667 4.2333984375  Z " fill-rule="nonzero" fill="#ffffff" stroke="none" transform="matrix(1 0 0 1 348 270 )" />
  </g>
</svg>