<?xml version="1.0" encoding="utf-8"?>
<svg version="1.1" xmlns:xlink="http://www.w3.org/1999/xlink" width="25px" height="22px" xmlns="http://www.w3.org/2000/svg">
  <g transform="matrix(1 0 0 1 -337 -92 )">
    <path d="M 21.1111111111111 22  L 6.11111111111111 22  C 2.73603763992293 22  0 19.4203073680727  0 16.2380952380952  C 0 13.0558831081178  2.73603763992293 10.4761904761905  6.11111111111111 10.4761904761905  L 18.8888888888889 10.4761904761905  C 21.6503126380428 10.4761904761905  23.8888888888889 8.36553286824993  23.8888888888889 5.76190476190476  C 23.8888888888889 3.15827665555959  21.6503126380428 1.04761904761905  18.8888888888889 1.04761904761905  L 13.8888888888889 1.04761904761905  C 13.5820640278718 1.04761904761905  13.3333333333333 0.813101535625654  13.3333333333333 0.523809523809524  C 13.3333333333333 0.234517511993394  13.5820640278718 0  13.8888888888889 0  L 18.8888888888889 0  C 22.2639623600771 0  25 2.57969263192733  25 5.76190476190476  C 25 8.94411689188219  22.2639623600771 11.5238095238095  18.8888888888889 11.5238095238095  L 6.11111111111111 11.5238095238095  C 3.34968746732427 11.5238095238095  1.11111121647823 13.6344671317501  1.11111121647823 16.2380952380952  C 1.11111121647823 18.8417233444404  3.34968746732427 20.9523809523809  6.11111121647823 20.9523809523809  C 6.11111121647823 20.9523809523809  6.11111111111111 20.9523809523809  6.11111111111111 21  L 21.1111111111111 21  C 21.1111111111111 20.952380952381  21.1111111111111 20.952380952381  21.1111111111111 20.952380952381  C 21.4179359721282 20.952380952381  21.6666666666667 21.1868984643743  21.6666666666667 21.4761904761905  C 21.6666666666667 21.7654824880066  21.4179359721282 22  21.1111111111111 22  Z " fill-rule="nonzero" fill="#555555" stroke="none" transform="matrix(1 0 0 1 337 92 )" />
  </g>
</svg>