<?xml version="1.0" encoding="utf-8"?>
<svg version="1.1" xmlns:xlink="http://www.w3.org/1999/xlink" width="10px" height="14px" xmlns="http://www.w3.org/2000/svg">
  <g transform="matrix(1 0 0 1 -358 -104 )">
    <path d="M 0 4.84615384615385  C 0 6.68176923076923  2.58333333333334 10.6044615384615  5 13.6634615384615  C 7.41666666666667 10.6044615384615  10 6.68176923076923  10 4.84615384615384  C 10 2.16969698158923  7.76142374915397 0  5 0  C 2.23857625084603 0  0 2.16969698158923  0 4.84615384615384  Z M 2.22222222222223 4.84615384615385  C 2.22405895351922 3.35997138022563  3.46663713832803 2.15562637033401  5 2.15384615384616  C 6.53412430508554 2.15384615384616  7.77777777777778 3.35923336584017  7.77777777777778 4.84615384615384  C 7.77777777777778 6.33307432646752  6.53412430508554 7.53846153846154  5 7.53846153846154  C 3.46587569491446 7.53846153846154  2.22222222222223 6.33307432646752  2.22222222222223 4.84615384615385  Z " fill-rule="nonzero" fill="#555555" stroke="none" transform="matrix(1 0 0 1 358 104 )" />
  </g>
</svg>