<?xml version="1.0" encoding="utf-8"?>
<svg version="1.1" xmlns:xlink="http://www.w3.org/1999/xlink" width="28px" height="28px" xmlns="http://www.w3.org/2000/svg">
  <g transform="matrix(1 0 0 1 -234 -24 )">
    <path d="M 20.5989583333333 18.9583333333333  C 20.8298611111111 18.7274305555556  20.9453125 18.4479166666667  20.9453125 18.1197916666667  C 20.9453125 17.8038194444444  20.8298611111111 17.5303819444444  20.5989583333333 17.2994791666667  L 17.2994791666667 14  L 20.5989583333333 10.7005208333333  C 20.8298611111111 10.4696180555556  20.9453125 10.1961805555556  20.9453125 9.88020833333333  C 20.9453125 9.55208333333333  20.8298611111111 9.27256944444444  20.5989583333333 9.04166666666667  L 18.9583333333333 7.40104166666667  C 18.7274305555556 7.17013888888889  18.4479166666667 7.0546875  18.1197916666667 7.0546875  C 17.8038194444444 7.0546875  17.5303819444444 7.17013888888889  17.2994791666667 7.40104166666667  L 14 10.7005208333333  L 10.7005208333333 7.40104166666667  C 10.4696180555556 7.17013888888889  10.1961805555556 7.0546875  9.88020833333333 7.0546875  C 9.55208333333333 7.0546875  9.27256944444444 7.17013888888889  9.04166666666667 7.40104166666667  L 7.40104166666667 9.04166666666667  C 7.17013888888889 9.27256944444444  7.0546875 9.55208333333333  7.0546875 9.88020833333333  C 7.0546875 10.1961805555556  7.17013888888889 10.4696180555556  7.40104166666667 10.7005208333333  L 10.7005208333333 14  L 7.40104166666667 17.2994791666667  C 7.17013888888889 17.5303819444444  7.0546875 17.8038194444444  7.0546875 18.1197916666667  C 7.0546875 18.4479166666667  7.17013888888889 18.7274305555556  7.40104166666667 18.9583333333333  L 9.04166666666667 20.5989583333333  C 9.27256944444444 20.8298611111111  9.55208333333333 20.9453125  9.88020833333333 20.9453125  C 10.1961805555556 20.9453125  10.4696180555556 20.8298611111111  10.7005208333333 20.5989583333333  L 14 17.2994791666667  L 17.2994791666667 20.5989583333333  C 17.5303819444444 20.8298611111111  17.8038194444444 20.9453125  18.1197916666667 20.9453125  C 18.4479166666667 20.9453125  18.7274305555556 20.8298611111111  18.9583333333333 20.5989583333333  L 20.5989583333333 18.9583333333333  Z M 26.1223958333333 6.97265625  C 27.3741319444444 9.11762152777778  28 11.4600694444444  28 14  C 28 16.5399305555556  27.3741319444444 18.8823784722222  26.1223958333333 21.02734375  C 24.8706597222222 23.1723090277778  23.1723090277778 24.8706597222222  21.02734375 26.1223958333333  C 18.8823784722222 27.3741319444444  16.5399305555556 28  14 28  C 11.4600694444444 28  9.11762152777778 27.3741319444444  6.97265625 26.1223958333333  C 4.82769097222222 24.8706597222222  3.12934027777778 23.1723090277778  1.87760416666667 21.02734375  C 0.625868055555555 18.8823784722222  0 16.5399305555556  0 14  C 0 11.4600694444444  0.625868055555555 9.11762152777778  1.87760416666667 6.97265625  C 3.12934027777778 4.82769097222222  4.82769097222222 3.12934027777778  6.97265625 1.87760416666667  C 9.11762152777778 0.625868055555553  11.4600694444444 0  14 0  C 16.5399305555556 0  18.8823784722222 0.625868055555553  21.02734375 1.87760416666667  C 23.1723090277778 3.12934027777778  24.8706597222222 4.82769097222222  26.1223958333333 6.97265625  Z " fill-rule="nonzero" fill="#555555" stroke="none" transform="matrix(1 0 0 1 234 24 )" />
  </g>
</svg>