<?xml version="1.0" encoding="utf-8"?>
<svg version="1.1" xmlns:xlink="http://www.w3.org/1999/xlink" width="26px" height="18px" xmlns="http://www.w3.org/2000/svg">
  <g transform="matrix(1 0 0 1 -17 -433 )">
    <path d="M 25.6783854166667 14.6671875  C 25.8927951388889 14.8453125  26 15.05625  26 15.3  L 26 17.1  C 26 17.34375  25.8927951388889 17.5546875  25.6783854166667 17.7328125  C 25.4639756944444 17.9109375  25.2100694444444 18  24.9166666666667 18  L 1.08333333333333 18  C 0.789930555555556 18  0.536024305555556 17.9109375  0.321614583333333 17.7328125  C 0.107204861111111 17.5546875  0 17.34375  0 17.1  L 0 15.3  C 0 15.05625  0.107204861111111 14.8453125  0.321614583333333 14.6671875  C 0.536024305555556 14.4890625  0.789930555555556 14.4  1.08333333333333 14.4  L 24.9166666666667 14.4  C 25.2100694444444 14.4  25.4639756944444 14.4890625  25.6783854166667 14.6671875  Z M 25.6783854166667 7.4671875  C 25.8927951388889 7.6453125  26 7.85625  26 8.1  L 26 9.9  C 26 10.14375  25.8927951388889 10.3546875  25.6783854166667 10.5328125  C 25.4639756944444 10.7109375  25.2100694444444 10.8  24.9166666666667 10.8  L 1.08333333333333 10.8  C 0.789930555555556 10.8  0.536024305555556 10.7109375  0.321614583333333 10.5328125  C 0.107204861111111 10.3546875  0 10.14375  0 9.9  L 0 8.1  C 0 7.85625  0.107204861111111 7.6453125  0.321614583333333 7.4671875  C 0.536024305555556 7.2890625  0.789930555555556 7.2  1.08333333333333 7.2  L 24.9166666666667 7.2  C 25.2100694444444 7.2  25.4639756944444 7.2890625  25.6783854166667 7.4671875  Z M 25.6783854166667 0.267187500000001  C 25.8927951388889 0.445312499999999  26 0.656249999999999  26 0.900000000000001  L 26 2.7  C 26 2.94375  25.8927951388889 3.1546875  25.6783854166667 3.3328125  C 25.4639756944444 3.5109375  25.2100694444444 3.6  24.9166666666667 3.6  L 1.08333333333333 3.6  C 0.789930555555556 3.6  0.536024305555556 3.5109375  0.321614583333333 3.3328125  C 0.107204861111111 3.1546875  0 2.94375  0 2.7  L 0 0.900000000000001  C 0 0.656249999999999  0.107204861111111 0.445312499999999  0.321614583333333 0.267187500000001  C 0.536024305555556 0.0890624999999989  0.789930555555556 0  1.08333333333333 0  L 24.9166666666667 0  C 25.2100694444444 0  25.4639756944444 0.0890624999999989  25.6783854166667 0.267187500000001  Z " fill-rule="nonzero" fill="#aaaaaa" stroke="none" transform="matrix(1 0 0 1 17 433 )" />
  </g>
</svg>