<?xml version="1.0" encoding="utf-8"?>
<svg version="1.1" xmlns:xlink="http://www.w3.org/1999/xlink" width="14px" height="14px" viewBox="40 755  14 14" xmlns="http://www.w3.org/2000/svg">
  <path d="M 47 755  C 50.92 755  54 758.08  54 762  C 54 765.92  50.92 769  47 769  C 43.08 769  40 765.92  40 762  C 40 758.08  43.08 755  47 755  Z " fill-rule="nonzero" fill="#f0f0f0" stroke="none" />
  <path d="M 47 755.5  C 50.64 755.5  53.5 758.36  53.5 762  C 53.5 765.64  50.64 768.5  47 768.5  C 43.36 768.5  40.5 765.64  40.5 762  C 40.5 758.36  43.36 755.5  47 755.5  Z " stroke-width="1" stroke="#797979" fill="none" />
  <path d="M 47 765.5  C 45.04 765.5  43.5 763.96  43.5 762  C 43.5 760.04  45.04 758.5  47 758.5  C 48.96 758.5  50.5 760.04  50.5 762  C 50.5 763.96  48.96 765.5  47 765.5  " fill-rule="nonzero" fill="#797979" stroke="none" />
</svg>