<?xml version="1.0" encoding="utf-8"?>
<svg version="1.1" xmlns:xlink="http://www.w3.org/1999/xlink" width="14px" height="14px" viewBox="40 730  14 14" xmlns="http://www.w3.org/2000/svg">
  <path d="M 47 730  C 50.92 730  54 733.08  54 737  C 54 740.92  50.92 744  47 744  C 43.08 744  40 740.92  40 737  C 40 733.08  43.08 730  47 730  Z " fill-rule="nonzero" fill="#ffffff" stroke="none" />
  <path d="M 47 730.5  C 50.64 730.5  53.5 733.36  53.5 737  C 53.5 740.64  50.64 743.5  47 743.5  C 43.36 743.5  40.5 740.64  40.5 737  C 40.5 733.36  43.36 730.5  47 730.5  Z " stroke-width="1" stroke="#797979" fill="none" />
  <path d="M 47 740.5  C 45.04 740.5  43.5 738.96  43.5 737  C 43.5 735.04  45.04 733.5  47 733.5  C 48.96 733.5  50.5 735.04  50.5 737  C 50.5 738.96  48.96 740.5  47 740.5  " fill-rule="nonzero" fill="#797979" stroke="none" />
</svg>